<?xml version="1.0" encoding="UTF-8"?>
<svg width="800px" height="600px" viewBox="0 0 800 600" version="1.1" xmlns="http://www.w3.org/2000/svg" xmlns:xlink="http://www.w3.org/1999/xlink">
    <!-- Generator: Sketch 51.2 (57519) - http://www.bohemiancoding.com/sketch -->
    <title>tallgrasschurch-logo</title>
    <desc>Created with Sketch.</desc>
    <defs></defs>
    <g id="tallgrasschurch-logo" stroke="none" stroke-width="1" fill="none" fill-rule="evenodd">
        <g id="text" transform="translate(-2.000000, 409.000000)" fill="#2C5FB1">
            <path d="M24.576,189.96 C21.4613178,189.96 18.6240128,189.448005 16.064,188.424 C13.5039872,187.399995 11.3066758,185.906676 9.472,183.944 C7.63732416,181.981324 6.21867168,179.560014 5.216,176.68 C4.21332832,173.799986 3.712,170.504019 3.712,166.792 C3.712,163.079981 4.27732768,159.784014 5.408,156.904 C6.53867232,154.023986 8.0639904,151.602676 9.984,149.64 C11.9040096,147.677324 14.1439872,146.184005 16.704,145.16 C19.2640128,144.135995 21.9946522,143.624 24.896,143.624 C26.7306758,143.624 28.3839926,143.751999 29.856,144.008 C31.3280074,144.264001 32.6079946,144.562665 33.696,144.904 C34.7840054,145.245335 35.6693299,145.586665 36.352,145.928 C37.0346701,146.269335 37.5039987,146.525332 37.76,146.696 L35.968,151.816 C35.5839981,151.559999 35.029337,151.282668 34.304,150.984 C33.578663,150.685332 32.7573379,150.386668 31.84,150.088 C30.9226621,149.789332 29.9200054,149.544001 28.832,149.352 C27.7439946,149.159999 26.6453389,149.064 25.536,149.064 C23.1893216,149.064 21.0773427,149.469329 19.2,150.28 C17.3226573,151.090671 15.7226733,152.263992 14.4,153.8 C13.0773267,155.336008 12.0640035,157.202656 11.36,159.4 C10.6559965,161.597344 10.304,164.06132 10.304,166.792 C10.304,169.437347 10.6133302,171.847989 11.232,174.024 C11.8506698,176.200011 12.7786605,178.066659 14.016,179.624 C15.2533395,181.181341 16.7999907,182.386662 18.656,183.24 C20.5120093,184.093338 22.677321,184.52 25.152,184.52 C28.010681,184.52 30.3786573,184.221336 32.256,183.624 C34.1333427,183.026664 35.5413286,182.493336 36.48,182.024 L38.08,187.144 C37.7813318,187.357334 37.2480038,187.623998 36.48,187.944 C35.7119962,188.264002 34.7520058,188.573332 33.6,188.872 C32.4479942,189.170668 31.1040077,189.426666 29.568,189.64 C28.0319923,189.853334 26.368009,189.96 24.576,189.96 Z M52.4120002,166.792 C52.4120002,162.994648 52.9773279,159.645348 54.1080002,156.744 C55.2386725,153.842652 56.7746572,151.421343 58.7160002,149.48 C60.6573432,147.538657 62.918654,146.077338 65.5000002,145.096 C68.0813464,144.114662 70.8226524,143.624 73.7240002,143.624 C76.5826812,143.624 79.2813208,144.114662 81.8200002,145.096 C84.3586796,146.077338 86.5879906,147.538657 88.5080002,149.48 C90.4280098,151.421343 91.9533279,153.842652 93.0840002,156.744 C94.2146725,159.645348 94.7800002,162.994648 94.7800002,166.792 C94.7800002,170.589352 94.2146725,173.938652 93.0840002,176.84 C91.9533279,179.741348 90.4280098,182.162657 88.5080002,184.104 C86.5879906,186.045343 84.3586796,187.506662 81.8200002,188.488 C79.2813208,189.469338 76.5826812,189.96 73.7240002,189.96 C70.8226524,189.96 68.0813464,189.469338 65.5000002,188.488 C62.918654,187.506662 60.6573432,186.045343 58.7160002,184.104 C56.7746572,182.162657 55.2386725,179.741348 54.1080002,176.84 C52.9773279,173.938652 52.4120002,170.589352 52.4120002,166.792 Z M58.9400002,166.792 C58.9400002,169.480013 59.2813301,171.922656 59.9640002,174.12 C60.6466703,176.317344 61.6173272,178.183992 62.8760002,179.72 C64.1346732,181.256008 65.6706578,182.439996 67.4840002,183.272 C69.2973426,184.104004 71.3346556,184.52 73.5960002,184.52 C75.8573448,184.52 77.8839912,184.104004 79.6760002,183.272 C81.4680092,182.439996 82.9933272,181.256008 84.2520002,179.72 C85.5106732,178.183992 86.4813301,176.317344 87.1640002,174.12 C87.8466703,171.922656 88.1880002,169.480013 88.1880002,166.792 C88.1880002,164.103987 87.8466703,161.661344 87.1640002,159.464 C86.4813301,157.266656 85.5106732,155.400008 84.2520002,153.864 C82.9933272,152.327992 81.4680092,151.144004 79.6760002,150.312 C77.8839912,149.479996 75.8573448,149.064 73.5960002,149.064 C71.3346556,149.064 69.2973426,149.479996 67.4840002,150.312 C65.6706578,151.144004 64.1346732,152.327992 62.8760002,153.864 C61.6173272,155.400008 60.6466703,157.266656 59.9640002,159.464 C59.2813301,161.661344 58.9400002,164.103987 58.9400002,166.792 Z M134.2,182.856 C133.773332,181.831995 133.208004,180.530675 132.504,178.952 C131.799997,177.373325 131.042671,175.666676 130.232,173.832 C129.42133,171.997324 128.557338,170.109343 127.64,168.168 C126.722662,166.226657 125.858671,164.392009 125.048,162.664 C124.23733,160.935991 123.480004,159.38934 122.776,158.024 C122.071997,156.65866 121.506669,155.613337 121.08,154.888 C120.610665,159.922692 120.226669,165.373304 119.928,171.24 C119.629332,177.106696 119.373335,183.026637 119.16,189 L113.08,189 C113.250668,185.159981 113.442666,181.28802 113.656,177.384 C113.869335,173.47998 114.114666,169.640019 114.392,165.864 C114.669335,162.087981 114.967999,158.408018 115.288,154.824 C115.608002,151.239982 115.959998,147.848016 116.344,144.648 L121.784,144.648 C122.936006,146.525343 124.173327,148.743987 125.496,151.304 C126.818674,153.864013 128.141327,156.541319 129.464,159.336 C130.786674,162.130681 132.066661,164.925319 133.304,167.72 C134.54134,170.514681 135.671995,173.063988 136.696,175.368 C137.720006,173.063988 138.850661,170.514681 140.088,167.72 C141.32534,164.925319 142.605327,162.130681 143.928,159.336 C145.250674,156.541319 146.573327,153.864013 147.896,151.304 C149.218674,148.743987 150.455995,146.525343 151.608,144.648 L157.048,144.648 C158.498674,158.941405 159.586663,173.725257 160.312,189 L154.232,189 C154.018666,183.026637 153.762669,177.106696 153.464,171.24 C153.165332,165.373304 152.781336,159.922692 152.312,154.888 C151.885332,155.613337 151.320004,156.65866 150.616,158.024 C149.911997,159.38934 149.154671,160.935991 148.344,162.664 C147.53333,164.392009 146.669338,166.226657 145.752,168.168 C144.834662,170.109343 143.970671,171.997324 143.16,173.832 C142.34933,175.666676 141.592004,177.373325 140.888,178.952 C140.183997,180.530675 139.618669,181.831995 139.192,182.856 L134.2,182.856 Z M200.244001,182.856 C199.817332,181.831995 199.252004,180.530675 198.548001,178.952 C197.843997,177.373325 197.086671,175.666676 196.276001,173.832 C195.46533,171.997324 194.601338,170.109343 193.684001,168.168 C192.766663,166.226657 191.902671,164.392009 191.092001,162.664 C190.28133,160.935991 189.524004,159.38934 188.820001,158.024 C188.115997,156.65866 187.550669,155.613337 187.124001,154.888 C186.654665,159.922692 186.270669,165.373304 185.972001,171.24 C185.673332,177.106696 185.417335,183.026637 185.204001,189 L179.124001,189 C179.294668,185.159981 179.486666,181.28802 179.700001,177.384 C179.913335,173.47998 180.158666,169.640019 180.436001,165.864 C180.713335,162.087981 181.011999,158.408018 181.332001,154.824 C181.652002,151.239982 182.003999,147.848016 182.388001,144.648 L187.828001,144.648 C188.980006,146.525343 190.217327,148.743987 191.540001,151.304 C192.862674,153.864013 194.185327,156.541319 195.508001,159.336 C196.830674,162.130681 198.110661,164.925319 199.348001,167.72 C200.58534,170.514681 201.715995,173.063988 202.740001,175.368 C203.764006,173.063988 204.894661,170.514681 206.132001,167.72 C207.36934,164.925319 208.649327,162.130681 209.972001,159.336 C211.294674,156.541319 212.617327,153.864013 213.940001,151.304 C215.262674,148.743987 216.499995,146.525343 217.652001,144.648 L223.092001,144.648 C224.542674,158.941405 225.630664,173.725257 226.356001,189 L220.276001,189 C220.062666,183.026637 219.806669,177.106696 219.508001,171.24 C219.209332,165.373304 218.825336,159.922692 218.356001,154.888 C217.929332,155.613337 217.364004,156.65866 216.660001,158.024 C215.955997,159.38934 215.198671,160.935991 214.388001,162.664 C213.57733,164.392009 212.713338,166.226657 211.796001,168.168 C210.878663,170.109343 210.014671,171.997324 209.204001,173.832 C208.39333,175.666676 207.636004,177.373325 206.932001,178.952 C206.227997,180.530675 205.662669,181.831995 205.236001,182.856 L200.244001,182.856 Z M262.896001,189.96 C259.994653,189.96 257.477345,189.512004 255.344001,188.616 C253.210657,187.719996 251.461341,186.493341 250.096001,184.936 C248.730661,183.378659 247.717337,181.533344 247.056001,179.4 C246.394664,177.266656 246.064001,174.962679 246.064001,172.488 L246.064001,144.648 L252.272001,144.648 L252.272001,171.784 C252.272001,176.221356 253.253324,179.442657 255.216001,181.448 C257.178677,183.453343 259.738652,184.456 262.896001,184.456 C264.474675,184.456 265.914661,184.210669 267.216001,183.72 C268.517341,183.229331 269.637329,182.472005 270.576001,181.448 C271.514672,180.423995 272.239998,179.112008 272.752001,177.512 C273.264003,175.911992 273.520001,174.002678 273.520001,171.784 L273.520001,144.648 L279.728001,144.648 L279.728001,172.488 C279.728001,174.962679 279.397337,177.266656 278.736001,179.4 C278.074664,181.533344 277.050674,183.378659 275.664001,184.936 C274.277327,186.493341 272.528011,187.719996 270.416001,188.616 C268.30399,189.512004 265.797349,189.96 262.896001,189.96 Z M331.116001,189 C330.17733,187.421325 329.100007,185.650676 327.884001,183.688 C326.667995,181.725324 325.356008,179.688011 323.948001,177.576 C322.539994,175.463989 321.078675,173.320011 319.564001,171.144 C318.049327,168.967989 316.545342,166.866677 315.052001,164.84 C313.55866,162.813323 312.108008,160.904009 310.700001,159.112 C309.291994,157.319991 307.990674,155.74134 306.796001,154.376 L306.796001,189 L300.716001,189 L300.716001,144.648 L305.644001,144.648 C307.649344,146.781344 309.793323,149.266652 312.076001,152.104 C314.358679,154.941348 316.61999,157.863985 318.860001,160.872 C321.100012,163.880015 323.211991,166.834652 325.196001,169.736 C327.180011,172.637348 328.854661,175.218655 330.220001,177.48 L330.220001,144.648 L336.300001,144.648 L336.300001,189 L331.116001,189 Z M357.608001,144.648 L363.816001,144.648 L363.816001,189 L357.608001,189 L357.608001,144.648 Z M414.756001,144.648 L414.756001,150.024 L400.804001,150.024 L400.804001,189 L394.596001,189 L394.596001,150.024 L380.644001,150.024 L380.644001,144.648 L414.756001,144.648 Z M444.000002,189 L444.000002,171.208 C441.055987,166.642644 438.282681,162.141356 435.680002,157.704 C433.077322,153.266644 430.624013,148.914688 428.320002,144.648 L435.616002,144.648 C437.237343,148.146684 439.050658,151.698649 441.056002,155.304 C443.061345,158.909351 445.130658,162.375983 447.264002,165.704 C449.354679,162.375983 451.402658,158.909351 453.408002,155.304 C455.413345,151.698649 457.247993,148.146684 458.912002,144.648 L465.824002,144.648 C463.51999,148.914688 461.066681,153.255978 458.464002,157.672 C455.861322,162.088022 453.109349,166.557311 450.208002,171.08 L450.208002,189 L444.000002,189 Z M526.168002,189.96 C523.05332,189.96 520.216015,189.448005 517.656002,188.424 C515.095989,187.399995 512.898678,185.906676 511.064002,183.944 C509.229326,181.981324 507.810674,179.560014 506.808002,176.68 C505.80533,173.799986 505.304002,170.504019 505.304002,166.792 C505.304002,163.079981 505.86933,159.784014 507.000002,156.904 C508.130674,154.023986 509.655992,151.602676 511.576002,149.64 C513.496012,147.677324 515.735989,146.184005 518.296002,145.16 C520.856015,144.135995 523.586654,143.624 526.488002,143.624 C528.322678,143.624 529.975995,143.751999 531.448002,144.008 C532.920009,144.264001 534.199996,144.562665 535.288002,144.904 C536.376007,145.245335 537.261332,145.586665 537.944002,145.928 C538.626672,146.269335 539.096001,146.525332 539.352002,146.696 L537.560002,151.816 C537.176,151.559999 536.621339,151.282668 535.896002,150.984 C535.170665,150.685332 534.34934,150.386668 533.432002,150.088 C532.514664,149.789332 531.512007,149.544001 530.424002,149.352 C529.335996,149.159999 528.237341,149.064 527.128002,149.064 C524.781324,149.064 522.669345,149.469329 520.792002,150.28 C518.914659,151.090671 517.314675,152.263992 515.992002,153.8 C514.669329,155.336008 513.656005,157.202656 512.952002,159.4 C512.247998,161.597344 511.896002,164.06132 511.896002,166.792 C511.896002,169.437347 512.205332,171.847989 512.824002,174.024 C513.442672,176.200011 514.370662,178.066659 515.608002,179.624 C516.845341,181.181341 518.391993,182.386662 520.248002,183.24 C522.104011,184.093338 524.269323,184.52 526.744002,184.52 C529.602683,184.52 531.970659,184.221336 533.848002,183.624 C535.725345,183.026664 537.133331,182.493336 538.072002,182.024 L539.672002,187.144 C539.373334,187.357334 538.840006,187.623998 538.072002,187.944 C537.303998,188.264002 536.344008,188.573332 535.192002,188.872 C534.039996,189.170668 532.69601,189.426666 531.160002,189.64 C529.623994,189.853334 527.960011,189.96 526.168002,189.96 Z M584.980002,144.648 L591.188002,144.648 L591.188002,189 L584.980002,189 L584.980002,168.52 L563.284002,168.52 L563.284002,189 L557.076002,189 L557.076002,144.648 L563.284002,144.648 L563.284002,163.144 L584.980002,163.144 L584.980002,144.648 Z M629.008002,189.96 C626.106654,189.96 623.589346,189.512004 621.456002,188.616 C619.322658,187.719996 617.573342,186.493341 616.208002,184.936 C614.842662,183.378659 613.829339,181.533344 613.168002,179.4 C612.506666,177.266656 612.176002,174.962679 612.176002,172.488 L612.176002,144.648 L618.384002,144.648 L618.384002,171.784 C618.384002,176.221356 619.365326,179.442657 621.328002,181.448 C623.290679,183.453343 625.850653,184.456 629.008002,184.456 C630.586677,184.456 632.026662,184.210669 633.328002,183.72 C634.629342,183.229331 635.749331,182.472005 636.688002,181.448 C637.626674,180.423995 638.352,179.112008 638.864002,177.512 C639.376005,175.911992 639.632002,174.002678 639.632002,171.784 L639.632002,144.648 L645.840002,144.648 L645.840002,172.488 C645.840002,174.962679 645.509339,177.266656 644.848002,179.4 C644.186666,181.533344 643.162676,183.378659 641.776002,184.936 C640.389329,186.493341 638.640013,187.719996 636.528002,188.616 C634.415992,189.512004 631.90935,189.96 629.008002,189.96 Z M688.524002,170.44 C689.206673,171.293338 690.070664,172.413326 691.116002,173.8 C692.161341,175.186674 693.238664,176.722658 694.348002,178.408 C695.457341,180.093342 696.555997,181.853324 697.644002,183.688 C698.732008,185.522676 699.659999,187.293325 700.428002,189 L693.644002,189 C692.790665,187.378659 691.862674,185.736008 690.860002,184.072 C689.857331,182.407992 688.844008,180.818674 687.820002,179.304 C686.795997,177.789326 685.782674,176.370673 684.780002,175.048 C683.777331,173.725327 682.870673,172.573338 682.060002,171.592 C681.505333,171.634667 680.940005,171.656 680.364002,171.656 L673.036002,171.656 L673.036002,189 L666.828002,189 L666.828002,145.288 C668.577345,144.861331 670.529325,144.573334 672.684002,144.424 C674.83868,144.274666 676.811994,144.2 678.604002,144.2 C684.833367,144.2 689.579986,145.373322 692.844002,147.72 C696.108019,150.066678 697.740002,153.56531 697.740002,158.216 C697.740002,161.160015 696.961344,163.677323 695.404002,165.768 C693.846661,167.858677 691.553351,169.415995 688.524002,170.44 Z M679.116002,149.64 C676.470656,149.64 674.44401,149.703999 673.036002,149.832 L673.036002,166.536 L677.452002,166.536 C679.585346,166.536 681.505327,166.429334 683.212002,166.216 C684.918678,166.002666 686.358663,165.597336 687.532002,165 C688.705342,164.402664 689.611999,163.560005 690.252002,162.472 C690.892006,161.383995 691.212002,159.944009 691.212002,158.152 C691.212002,156.487992 690.892006,155.101339 690.252002,153.992 C689.611999,152.882661 688.748008,152.008003 687.660002,151.368 C686.571997,150.727997 685.29201,150.280001 683.820002,150.024 C682.347995,149.767999 680.780011,149.64 679.116002,149.64 Z M735.752003,189.96 C732.63732,189.96 729.800015,189.448005 727.240003,188.424 C724.67999,187.399995 722.482679,185.906676 720.648003,183.944 C718.813327,181.981324 717.394674,179.560014 716.392003,176.68 C715.389331,173.799986 714.888003,170.504019 714.888003,166.792 C714.888003,163.079981 715.45333,159.784014 716.584003,156.904 C717.714675,154.023986 719.239993,151.602676 721.160003,149.64 C723.080012,147.677324 725.31999,146.184005 727.880003,145.16 C730.440015,144.135995 733.170655,143.624 736.072003,143.624 C737.906679,143.624 739.559995,143.751999 741.032003,144.008 C742.50401,144.264001 743.783997,144.562665 744.872003,144.904 C745.960008,145.245335 746.845333,145.586665 747.528003,145.928 C748.210673,146.269335 748.680001,146.525332 748.936003,146.696 L747.144003,151.816 C746.760001,151.559999 746.20534,151.282668 745.480003,150.984 C744.754666,150.685332 743.933341,150.386668 743.016003,150.088 C742.098665,149.789332 741.096008,149.544001 740.008003,149.352 C738.919997,149.159999 737.821342,149.064 736.712003,149.064 C734.365324,149.064 732.253345,149.469329 730.376003,150.28 C728.49866,151.090671 726.898676,152.263992 725.576003,153.8 C724.253329,155.336008 723.240006,157.202656 722.536003,159.4 C721.831999,161.597344 721.480003,164.06132 721.480003,166.792 C721.480003,169.437347 721.789333,171.847989 722.408003,174.024 C723.026672,176.200011 723.954663,178.066659 725.192003,179.624 C726.429342,181.181341 727.975993,182.386662 729.832003,183.24 C731.688012,184.093338 733.853324,184.52 736.328003,184.52 C739.186684,184.52 741.55466,184.221336 743.432003,183.624 C745.309345,183.026664 746.717331,182.493336 747.656003,182.024 L749.256003,187.144 C748.957335,187.357334 748.424007,187.623998 747.656003,187.944 C746.887999,188.264002 745.928008,188.573332 744.776003,188.872 C743.623997,189.170668 742.28001,189.426666 740.744003,189.64 C739.207995,189.853334 737.544012,189.96 735.752003,189.96 Z M794.564003,144.648 L800.772003,144.648 L800.772003,189 L794.564003,189 L794.564003,168.52 L772.868003,168.52 L772.868003,189 L766.660003,189 L766.660003,144.648 L772.868003,144.648 L772.868003,163.144 L794.564003,163.144 L794.564003,144.648 Z" id="community-church"></path>
            <path d="M83.16,32.98 L83.16,51.6 L53.9,51.6 L53.9,130 L32.06,130 L32.06,51.6 L2.8,51.6 L2.8,32.98 L83.16,32.98 Z M152.44,130 C151.413328,126.639983 150.270006,123.186684 149.01,119.64 C147.749994,116.093316 146.513339,112.546684 145.3,109 L107.5,109 C106.286661,112.546684 105.050006,116.093316 103.79,119.64 C102.529994,123.186684 101.386672,126.639983 100.36,130 L77.68,130 C81.3200182,119.546614 84.773317,109.886711 88.04,101.02 C91.306683,92.153289 94.5033177,83.8000392 97.63,75.96 C100.756682,68.1199608 103.836651,60.6767019 106.87,53.63 C109.903348,46.5832981 113.053317,39.7000336 116.32,32.98 L137.18,32.98 C140.353349,39.7000336 143.479985,46.5832981 146.56,53.63 C149.640015,60.6767019 152.743318,68.1199608 155.87,75.96 C158.996682,83.8000392 162.193317,92.153289 165.46,101.02 C168.726683,109.886711 172.179982,119.546614 175.82,130 L152.44,130 Z M126.26,54.96 C125.793331,56.360007 125.093338,58.2733212 124.16,60.7 C123.226662,63.1266788 122.153339,65.9266508 120.94,69.1 C119.726661,72.2733492 118.396674,75.7733142 116.95,79.6 C115.503326,83.4266858 114.033341,87.439979 112.54,91.64 L140.12,91.64 C138.626659,87.439979 137.180007,83.4266858 135.78,79.6 C134.379993,75.7733142 133.050006,72.2733492 131.79,69.1 C130.529994,65.9266508 129.433338,63.1266788 128.5,60.7 C127.566662,58.2733212 126.820003,56.360007 126.26,54.96 Z M255.04,111.24 L255.04,130 L190.22,130 L190.22,32.98 L212.06,32.98 L212.06,111.24 L255.04,111.24 Z M335.66,111.24 L335.66,130 L270.84,130 L270.84,32.98 L292.68,32.98 L292.68,111.24 L335.66,111.24 Z M395.98,49.78 C385.806616,49.78 378.456689,52.6033051 373.93,58.25 C369.403311,63.8966949 367.14,71.619951 367.14,81.42 C367.14,86.1800238 367.699994,90.4966473 368.82,94.37 C369.940005,98.2433527 371.619989,101.579986 373.86,104.38 C376.100011,107.180014 378.899983,109.349992 382.26,110.89 C385.620017,112.430008 389.539977,113.2 394.02,113.2 C396.446679,113.2 398.523325,113.153334 400.25,113.06 C401.976675,112.966666 403.493327,112.780001 404.8,112.5 L404.8,78.76 L426.64,78.76 L426.64,126.78 C424.026653,127.806672 419.826695,128.903327 414.04,130.07 C408.253304,131.236672 401.113376,131.82 392.62,131.82 C385.339963,131.82 378.736696,130.700011 372.81,128.46 C366.883304,126.219989 361.820021,122.953355 357.62,118.66 C353.419979,114.366645 350.176678,109.093365 347.89,102.84 C345.603322,96.5866354 344.46,89.4467068 344.46,81.42 C344.46,73.2999594 345.719987,66.1133646 348.24,59.86 C350.760012,53.6066354 354.213311,48.3100217 358.6,43.97 C362.986688,39.6299783 368.143304,36.3400112 374.07,34.1 C379.996696,31.8599888 386.319966,30.74 393.04,30.74 C397.613356,30.74 401.743315,31.0433303 405.43,31.65 C409.116685,32.2566697 412.289987,32.9566627 414.95,33.75 C417.610013,34.5433373 419.803325,35.3599958 421.53,36.2 C423.256675,37.0400042 424.493329,37.693331 425.24,38.16 L418.94,55.66 C415.953318,54.0733254 412.523353,52.6966725 408.65,51.53 C404.776647,50.3633275 400.553356,49.78 395.98,49.78 Z M477.16,31.86 C491.720073,31.86 502.873294,34.4499741 510.62,39.63 C518.366705,44.8100259 522.24,52.8599454 522.24,63.78 C522.24,70.5933674 520.676682,76.1233121 517.55,80.37 C514.423317,84.6166879 509.920029,87.9533212 504.04,90.38 C506.00001,92.8066788 508.053322,95.5833177 510.2,98.71 C512.346677,101.836682 514.469989,105.103316 516.57,108.51 C518.67001,111.916684 520.69999,115.463315 522.66,119.15 C524.62001,122.836685 526.439991,126.453316 528.12,130 L503.62,130 C501.846658,126.826651 500.050009,123.606683 498.23,120.34 C496.409991,117.073317 494.543343,113.900015 492.63,110.82 C490.716657,107.739985 488.826676,104.823347 486.96,102.07 C485.093324,99.3166529 483.226676,96.8200112 481.36,94.58 L470.58,94.58 L470.58,130 L448.74,130 L448.74,34.38 C453.500024,33.446662 458.423308,32.7933352 463.51,32.42 C468.596692,32.0466648 473.146646,31.86 477.16,31.86 Z M478.42,50.48 C476.833325,50.48 475.410006,50.5266662 474.15,50.62 C472.889993,50.7133338 471.700005,50.8066662 470.58,50.9 L470.58,77.22 L476.74,77.22 C484.953374,77.22 490.833315,76.1933436 494.38,74.14 C497.926684,72.0866564 499.7,68.5866914 499.7,63.64 C499.7,58.8799762 497.903351,55.4966767 494.31,53.49 C490.716648,51.4833233 485.420035,50.48 478.42,50.48 Z M613.22,130 C612.193328,126.639983 611.050006,123.186684 609.79,119.64 C608.529993,116.093316 607.293339,112.546684 606.08,109 L568.28,109 C567.06666,112.546684 565.830006,116.093316 564.57,119.64 C563.309993,123.186684 562.166672,126.639983 561.14,130 L538.46,130 C542.100018,119.546614 545.553317,109.886711 548.82,101.02 C552.086683,92.153289 555.283317,83.8000392 558.41,75.96 C561.536682,68.1199608 564.616651,60.6767019 567.65,53.63 C570.683348,46.5832981 573.833317,39.7000336 577.1,32.98 L597.96,32.98 C601.133349,39.7000336 604.259984,46.5832981 607.34,53.63 C610.420015,60.6767019 613.523317,68.1199608 616.65,75.96 C619.776682,83.8000392 622.973317,92.153289 626.24,101.02 C629.506683,109.886711 632.959982,119.546614 636.6,130 L613.22,130 Z M587.04,54.96 C586.573331,56.360007 585.873338,58.2733212 584.94,60.7 C584.006662,63.1266788 582.933339,65.9266508 581.72,69.1 C580.50666,72.2733492 579.176674,75.7733142 577.73,79.6 C576.283326,83.4266858 574.813341,87.439979 573.32,91.64 L600.9,91.64 C599.406659,87.439979 597.960007,83.4266858 596.56,79.6 C595.159993,75.7733142 593.830006,72.2733492 592.57,69.1 C591.309993,65.9266508 590.213338,63.1266788 589.28,60.7 C588.346662,58.2733212 587.600003,56.360007 587.04,54.96 Z M680.12,113.34 C683.200015,113.34 685.743323,113.083336 687.75,112.57 C689.756676,112.056664 691.36666,111.356671 692.58,110.47 C693.793339,109.583329 694.633331,108.533339 695.1,107.32 C695.566669,106.106661 695.8,104.753341 695.8,103.26 C695.8,100.086651 694.306681,97.4500105 691.32,95.35 C688.333318,93.2499895 683.200036,90.9866788 675.92,88.56 C672.74665,87.4399944 669.573349,86.1566739 666.4,84.71 C663.22665,83.2633261 660.380012,81.4433443 657.86,79.25 C655.339987,77.0566557 653.286674,74.3966823 651.7,71.27 C650.113325,68.1433177 649.32,64.3400224 649.32,59.86 C649.32,55.3799776 650.159991,51.3433513 651.84,47.75 C653.520008,44.1566487 655.899984,41.1000126 658.98,38.58 C662.060015,36.0599874 665.793311,34.1233401 670.18,32.77 C674.566688,31.4166599 679.513305,30.74 685.02,30.74 C691.553366,30.74 697.199976,31.439993 701.96,32.84 C706.720023,34.240007 710.639984,35.7799916 713.72,37.46 L707.42,54.68 C704.713319,53.279993 701.70335,52.0433387 698.39,50.97 C695.07665,49.8966613 691.08669,49.36 686.42,49.36 C681.193307,49.36 677.436678,50.0833261 675.15,51.53 C672.863322,52.9766739 671.72,55.1933184 671.72,58.18 C671.72,59.9533422 672.139995,61.4466606 672.98,62.66 C673.820004,63.8733394 675.009992,64.9699951 676.55,65.95 C678.090007,66.9300049 679.863323,67.8166627 681.87,68.61 C683.876676,69.4033373 686.093321,70.2199958 688.52,71.06 C693.560025,72.926676 697.946648,74.7699909 701.68,76.59 C705.413352,78.4100091 708.516654,80.5333212 710.99,82.96 C713.463345,85.3866788 715.30666,88.233317 716.52,91.5 C717.733339,94.766683 718.34,98.73331 718.34,103.4 C718.34,112.453379 715.166698,119.476642 708.82,124.47 C702.473301,129.463358 692.90673,131.96 680.12,131.96 C675.826645,131.96 671.95335,131.703336 668.5,131.19 C665.046649,130.676664 661.990013,130.04667 659.33,129.3 C656.669986,128.55333 654.383343,127.760004 652.47,126.92 C650.556657,126.079996 648.946673,125.28667 647.64,124.54 L653.8,107.18 C656.693347,108.766675 660.263312,110.189994 664.51,111.45 C668.756688,112.710006 673.959969,113.34 680.12,113.34 Z M763.4,113.34 C766.480015,113.34 769.023323,113.083336 771.03,112.57 C773.036676,112.056664 774.64666,111.356671 775.86,110.47 C777.073339,109.583329 777.913331,108.533339 778.38,107.32 C778.846669,106.106661 779.08,104.753341 779.08,103.26 C779.08,100.086651 777.586681,97.4500105 774.6,95.35 C771.613318,93.2499895 766.480036,90.9866788 759.2,88.56 C756.02665,87.4399944 752.853349,86.1566739 749.68,84.71 C746.50665,83.2633261 743.660012,81.4433443 741.14,79.25 C738.619987,77.0566557 736.566674,74.3966823 734.98,71.27 C733.393325,68.1433177 732.6,64.3400224 732.6,59.86 C732.6,55.3799776 733.439991,51.3433513 735.12,47.75 C736.800008,44.1566487 739.179984,41.1000126 742.26,38.58 C745.340015,36.0599874 749.073311,34.1233401 753.46,32.77 C757.846688,31.4166599 762.793305,30.74 768.3,30.74 C774.833366,30.74 780.479976,31.439993 785.24,32.84 C790.000023,34.240007 793.919984,35.7799916 797,37.46 L790.7,54.68 C787.993319,53.279993 784.98335,52.0433387 781.67,50.97 C778.35665,49.8966613 774.36669,49.36 769.7,49.36 C764.473307,49.36 760.716678,50.0833261 758.43,51.53 C756.143322,52.9766739 755,55.1933184 755,58.18 C755,59.9533422 755.419995,61.4466606 756.26,62.66 C757.100004,63.8733394 758.289992,64.9699951 759.83,65.95 C761.370007,66.9300049 763.143323,67.8166627 765.15,68.61 C767.156676,69.4033373 769.373321,70.2199958 771.8,71.06 C776.840025,72.926676 781.226648,74.7699909 784.96,76.59 C788.693352,78.4100091 791.796654,80.5333212 794.27,82.96 C796.743345,85.3866788 798.58666,88.233317 799.8,91.5 C801.013339,94.766683 801.62,98.73331 801.62,103.4 C801.62,112.453379 798.446698,119.476642 792.1,124.47 C785.753301,129.463358 776.18673,131.96 763.4,131.96 C759.106645,131.96 755.23335,131.703336 751.78,131.19 C748.326649,130.676664 745.270013,130.04667 742.61,129.3 C739.949986,128.55333 737.663343,127.760004 735.75,126.92 C733.836657,126.079996 732.226673,125.28667 730.92,124.54 L737.08,107.18 C739.973347,108.766675 743.543312,110.189994 747.79,111.45 C752.036688,112.710006 757.239969,113.34 763.4,113.34 Z" id="tallgrass"></path>
        </g>
        <g id="icon" transform="translate(220.000000, 0.000000)">
            <path d="M189.712859,5.39603257 L349.712859,94.2849215 C356.062162,97.8123124 360,104.504724 360,111.768067 L360,288.231933 C360,295.495276 356.062162,302.187688 349.712859,305.715079 L189.712859,394.603967 C183.672408,397.959773 176.327592,397.959773 170.287141,394.603967 L10.2871414,305.715079 C3.93783767,302.187688 1.20792265e-13,295.495276 1.20792265e-13,288.231933 L3.55271368e-14,111.768067 C2.48689958e-14,104.504724 3.93783767,97.8123124 10.2871414,94.2849215 L170.287141,5.39603257 C176.327592,2.0402266 183.672408,2.0402266 189.712859,5.39603257 Z" id="bg" fill="#F8C76E"></path>
            <path d="M360,148.471922 L360,288.231933 C360,295.495276 356.062162,302.187688 349.712859,305.715079 L189.712859,394.603967 C183.672408,397.959773 176.327592,397.959773 170.287141,394.603967 L10.2871414,305.715079 C8.66381321,304.81323 7.19811603,303.704492 5.91555928,302.432219 L360,148.471922 Z" id="hill-3" fill="#1B778F"></path>
            <path d="M360,265.895969 L360,288.231933 C360,295.495276 356.062162,302.187688 349.712859,305.715079 L189.712859,394.603967 C183.672408,397.959773 176.327592,397.959773 170.287141,394.603967 L10.2871414,305.715079 C3.93783767,302.187688 4.3031719e-14,295.495276 4.3031719e-14,288.231933 L0,199.173913 L360,265.895969 Z" id="hill-2" fill="#31B5B7"></path>
            <path d="M192.366108,270.231394 L207.899798,150.223807 C241.719278,84.4140543 246.673915,69.4701316 242.951497,75.1172716 C239.229078,80.7857296 223.381967,108.088767 223.381967,108.088767 L232.151332,81.1033679 C232.151332,81.1033679 231.282982,83.3033862 220.824146,103.73563 C236.100229,64.9123418 239.321388,41.2823972 239.503859,39.8317068 L209.201786,127.273907 C209.201786,127.273907 212.305948,33.9809798 209.018241,36.770441 C205.729461,39.5588363 204.725868,150.517996 204.725868,150.517996 L188.743512,270.893318 L185.766007,271.435862 L181.935179,170.405564 C181.935179,170.405564 194.242344,26.1114376 190.29452,22.0983229 C186.364943,18.0617583 178.966261,139.655405 178.966261,139.655405 L150.307504,22.2795259 C150.307504,22.2795259 151.198394,53.7097292 166.748185,107.680527 C157.066463,83.3257701 155.19452,78.0197182 154.874658,77.0668033 L162.913064,113.010029 C162.913064,113.010029 145.649115,75.615047 141.515599,67.8147884 C137.382083,60.0134638 141.972851,80.0598515 177.847818,169.611468 L181.396352,272.232089 L156.33443,276.80267 L149.76009,217.777373 C149.76009,217.777373 150.969768,114.371183 147.978309,111.718157 C144.96431,109.064066 146.037671,196.030874 146.037671,196.030874 L119.503098,113.91711 C119.503098,113.91711 121.762524,136.254117 135.668998,173.897454 C127.722901,157.571058 125.987275,153.624029 125.622333,152.785166 L133.204559,177.88925 C133.204559,177.88925 118.95461,152.127505 115.597135,146.799069 C112.240733,141.447184 116.57926,155.484025 146.791171,217.437351 L153.276423,277.360136" id="grass" fill="#305696"></path>
            <path d="M360,235.685574 L360,288.231933 C360,295.495276 356.062162,302.187688 349.712859,305.715079 L189.712859,394.603967 C183.672408,397.959773 176.327592,397.959773 170.287141,394.603967 L10.2871414,305.715079 C8.27005781,304.594477 6.49634968,303.154447 5.01495581,301.478163 L360,235.685574 Z" id="hill-1" fill="#305696"></path>
        </g>
    </g>
</svg>