<?xml version="1.0" encoding="UTF-8"?>
<svg width="800px" height="600px" viewBox="0 0 800 600" version="1.1" xmlns="http://www.w3.org/2000/svg" xmlns:xlink="http://www.w3.org/1999/xlink">
    <!-- Generator: Sketch 51.2 (57519) - http://www.bohemiancoding.com/sketch -->
    <title>tallgrasschurch-logo</title>
    <desc>Created with Sketch.</desc>
    <defs></defs>
    <g id="tallgrasschurch-logo" stroke="none" stroke-width="1" fill="none" fill-rule="evenodd">
        <g id="text" transform="translate(0.000000, 439.000000)" fill="#2C5FB1">
            <path d="M18.736,160.81 C16.1079869,160.81 13.7140108,160.378004 11.554,159.514 C9.3939892,158.649996 7.54000774,157.390008 5.992,155.734 C4.44399226,154.077992 3.24700423,152.035012 2.401,149.605 C1.55499577,147.174988 1.132,144.394016 1.132,141.262 C1.132,138.129984 1.60899523,135.349012 2.563,132.919 C3.51700477,130.488988 4.8039919,128.446008 6.424,126.79 C8.0440081,125.133992 9.9339892,123.874004 12.094,123.01 C14.2540108,122.145996 16.5579878,121.714 19.006,121.714 C20.5540077,121.714 21.9489938,121.821999 23.191,122.038 C24.4330062,122.254001 25.5129954,122.505999 26.431,122.794 C27.3490046,123.082001 28.0959971,123.369999 28.672,123.658 C29.2480029,123.946001 29.6439989,124.161999 29.86,124.306 L28.348,128.626 C28.0239984,128.409999 27.5560031,128.176001 26.944,127.924 C26.3319969,127.671999 25.6390039,127.420001 24.865,127.168 C24.0909961,126.915999 23.2450046,126.709001 22.327,126.547 C21.4089954,126.384999 20.4820047,126.304 19.546,126.304 C17.5659901,126.304 15.7840079,126.645997 14.2,127.33 C12.6159921,128.014003 11.2660056,129.003994 10.15,130.3 C9.03399442,131.596006 8.17900297,133.170991 7.585,135.025 C6.99099703,136.879009 6.694,138.957988 6.694,141.262 C6.694,143.494011 6.95499739,145.527991 7.477,147.364 C7.99900261,149.200009 8.78199478,150.774993 9.826,152.089 C10.8700052,153.403007 12.1749922,154.419996 13.741,155.14 C15.3070078,155.860004 17.1339896,156.22 19.222,156.22 C21.6340121,156.22 23.6319921,155.968003 25.216,155.464 C26.8000079,154.959997 27.987996,154.510002 28.78,154.114 L30.13,158.434 C29.8779987,158.614001 29.4280032,158.838999 28.78,159.109 C28.1319968,159.379001 27.3220049,159.639999 26.35,159.892 C25.3779951,160.144001 24.2440065,160.359999 22.948,160.54 C21.6519935,160.720001 20.2480076,160.81 18.736,160.81 Z M50.6320004,141.262 C50.6320004,138.057984 51.1089956,135.232012 52.0630004,132.784 C53.0170052,130.335988 54.3129922,128.293008 55.9510004,126.655 C57.5890086,125.016992 59.4969895,123.784004 61.6750004,122.956 C63.8530113,122.127996 66.1659881,121.714 68.6140004,121.714 C71.0260124,121.714 73.3029897,122.127996 75.4450004,122.956 C77.5870111,123.784004 79.4679923,125.016992 81.0880004,126.655 C82.7080085,128.293008 83.9949956,130.335988 84.9490004,132.784 C85.9030052,135.232012 86.3800004,138.057984 86.3800004,141.262 C86.3800004,144.466016 85.9030052,147.291988 84.9490004,149.74 C83.9949956,152.188012 82.7080085,154.230992 81.0880004,155.869 C79.4679923,157.507008 77.5870111,158.739996 75.4450004,159.568 C73.3029897,160.396004 71.0260124,160.81 68.6140004,160.81 C66.1659881,160.81 63.8530113,160.396004 61.6750004,159.568 C59.4969895,158.739996 57.5890086,157.507008 55.9510004,155.869 C54.3129922,154.230992 53.0170052,152.188012 52.0630004,149.74 C51.1089956,147.291988 50.6320004,144.466016 50.6320004,141.262 Z M56.1400004,141.262 C56.1400004,143.530011 56.4279975,145.590991 57.0040004,147.445 C57.5800033,149.299009 58.3989951,150.873994 59.4610004,152.17 C60.5230057,153.466006 61.8189927,154.464996 63.3490004,155.167 C64.879008,155.869004 66.5979908,156.22 68.5060004,156.22 C70.4140099,156.22 72.1239928,155.869004 73.6360004,155.167 C75.1480079,154.464996 76.4349951,153.466006 77.4970004,152.17 C78.5590057,150.873994 79.3779975,149.299009 79.9540004,147.445 C80.5300033,145.590991 80.8180004,143.530011 80.8180004,141.262 C80.8180004,138.993989 80.5300033,136.933009 79.9540004,135.079 C79.3779975,133.224991 78.5590057,131.650006 77.4970004,130.354 C76.4349951,129.057994 75.1480079,128.059004 73.6360004,127.357 C72.1239928,126.654996 70.4140099,126.304 68.5060004,126.304 C66.5979908,126.304 64.879008,126.654996 63.3490004,127.357 C61.8189927,128.059004 60.5230057,129.057994 59.4610004,130.354 C58.3989951,131.650006 57.5800033,133.224991 57.0040004,135.079 C56.4279975,136.933009 56.1400004,138.993989 56.1400004,141.262 Z M128.050001,154.816 C127.689999,153.951996 127.213004,152.854007 126.619001,151.522 C126.024998,150.189993 125.386004,148.750008 124.702001,147.202 C124.017997,145.653992 123.289005,144.061008 122.515001,142.423 C121.740997,140.784992 121.012004,139.237007 120.328001,137.779 C119.643997,136.320993 119.005004,135.016006 118.411001,133.864 C117.816998,132.711994 117.340003,131.830003 116.980001,131.218 C116.583999,135.466021 116.260002,140.064975 116.008001,145.015 C115.756,149.965025 115.540002,154.959975 115.360001,160 L110.230001,160 C110.374001,156.759984 110.536,153.493016 110.716001,150.199 C110.896002,146.904984 111.103,143.665016 111.337001,140.479 C111.571002,137.292984 111.822999,134.188015 112.093001,131.164 C112.363002,128.139985 112.659999,125.278013 112.984001,122.578 L117.574001,122.578 C118.546006,124.162008 119.589995,126.033989 120.706001,128.194 C121.822006,130.354011 122.937995,132.612988 124.054001,134.971 C125.170006,137.329012 126.249996,139.686988 127.294001,142.045 C128.338006,144.403012 129.291996,146.55399 130.156001,148.498 C131.020005,146.55399 131.973996,144.403012 133.018001,142.045 C134.062006,139.686988 135.141995,137.329012 136.258001,134.971 C137.374006,132.612988 138.489995,130.354011 139.606001,128.194 C140.722006,126.033989 141.765996,124.162008 142.738001,122.578 L147.328001,122.578 C148.552007,134.63806 149.469998,147.111936 150.082001,160 L144.952001,160 C144.772,154.959975 144.556002,149.965025 144.304001,145.015 C144.052,140.064975 143.728003,135.466021 143.332001,131.218 C142.971999,131.830003 142.495004,132.711994 141.901001,133.864 C141.306998,135.016006 140.668004,136.320993 139.984001,137.779 C139.299997,139.237007 138.571005,140.784992 137.797001,142.423 C137.022997,144.061008 136.294004,145.653992 135.610001,147.202 C134.925997,148.750008 134.287004,150.189993 133.693001,151.522 C133.098998,152.854007 132.622003,153.951996 132.262001,154.816 L128.050001,154.816 Z M192.184001,154.816 C191.823999,153.951996 191.347004,152.854007 190.753001,151.522 C190.158998,150.189993 189.520005,148.750008 188.836001,147.202 C188.151998,145.653992 187.423005,144.061008 186.649001,142.423 C185.874997,140.784992 185.146005,139.237007 184.462001,137.779 C183.777998,136.320993 183.139004,135.016006 182.545001,133.864 C181.950998,132.711994 181.474003,131.830003 181.114001,131.218 C180.717999,135.466021 180.394002,140.064975 180.142001,145.015 C179.89,149.965025 179.674002,154.959975 179.494001,160 L174.364001,160 C174.508002,156.759984 174.67,153.493016 174.850001,150.199 C175.030002,146.904984 175.237,143.665016 175.471001,140.479 C175.705002,137.292984 175.957,134.188015 176.227001,131.164 C176.497002,128.139985 176.794,125.278013 177.118001,122.578 L181.708001,122.578 C182.680006,124.162008 183.723996,126.033989 184.840001,128.194 C185.956007,130.354011 187.071996,132.612988 188.188001,134.971 C189.304007,137.329012 190.383996,139.686988 191.428001,142.045 C192.472006,144.403012 193.425997,146.55399 194.290001,148.498 C195.154005,146.55399 196.107996,144.403012 197.152001,142.045 C198.196006,139.686988 199.275996,137.329012 200.392001,134.971 C201.508007,132.612988 202.623996,130.354011 203.740001,128.194 C204.856007,126.033989 205.899996,124.162008 206.872001,122.578 L211.462001,122.578 C212.686007,134.63806 213.603998,147.111936 214.216001,160 L209.086001,160 C208.906,154.959975 208.690002,149.965025 208.438001,145.015 C208.186,140.064975 207.862003,135.466021 207.466001,131.218 C207.105999,131.830003 206.629004,132.711994 206.035001,133.864 C205.440998,135.016006 204.802005,136.320993 204.118001,137.779 C203.433998,139.237007 202.705005,140.784992 201.931001,142.423 C201.156997,144.061008 200.428005,145.653992 199.744001,147.202 C199.059998,148.750008 198.421004,150.189993 197.827001,151.522 C197.232998,152.854007 196.756003,153.951996 196.396001,154.816 L192.184001,154.816 Z M253.456002,160.81 C251.007989,160.81 248.884011,160.432004 247.084002,159.676 C245.283993,158.919996 243.808007,157.885007 242.656002,156.571 C241.503996,155.256993 240.649004,153.700009 240.091002,151.9 C239.532999,150.099991 239.254002,148.15601 239.254002,146.068 L239.254002,122.578 L244.492002,122.578 L244.492002,145.474 C244.492002,149.218019 245.319993,151.935992 246.976002,153.628 C248.63201,155.320008 250.791988,156.166 253.456002,156.166 C254.788008,156.166 256.002996,155.959002 257.101002,155.545 C258.199007,155.130998 259.143998,154.492004 259.936002,153.628 C260.728005,152.763996 261.339999,151.657007 261.772002,150.307 C262.204004,148.956993 262.420002,147.346009 262.420002,145.474 L262.420002,122.578 L267.658002,122.578 L267.658002,146.068 C267.658002,148.15601 267.379004,150.099991 266.821002,151.9 C266.262999,153.700009 265.399007,155.256993 264.229002,156.571 C263.058996,157.885007 261.58301,158.919996 259.801002,159.676 C258.018993,160.432004 255.904014,160.81 253.456002,160.81 Z M319.426002,160 C318.633998,158.667993 317.725007,157.174008 316.699002,155.518 C315.672997,153.861992 314.566008,152.143009 313.378002,150.361 C312.189996,148.578991 310.957008,146.770009 309.679002,144.934 C308.400996,143.097991 307.132008,141.325009 305.872002,139.615 C304.611996,137.904991 303.388008,136.294008 302.200002,134.782 C301.011996,133.269992 299.914007,131.938006 298.906002,130.786 L298.906002,160 L293.776002,160 L293.776002,122.578 L297.934002,122.578 C299.62601,124.378009 301.434992,126.474988 303.361002,128.869 C305.287012,131.263012 307.194992,133.728987 309.085002,136.267 C310.975011,138.805013 312.756994,141.297988 314.431002,143.746 C316.10501,146.194012 317.517996,148.37199 318.670002,150.28 L318.670002,122.578 L323.800002,122.578 L323.800002,160 L319.426002,160 Z M350.188002,122.578 L355.426002,122.578 L355.426002,160 L350.188002,160 L350.188002,122.578 Z M406.816003,122.578 L406.816003,127.114 L395.044003,127.114 L395.044003,160 L389.806003,160 L389.806003,127.114 L378.034003,127.114 L378.034003,122.578 L406.816003,122.578 Z M439.900003,160 L439.900003,144.988 C437.415991,141.135981 435.076014,137.338019 432.880003,133.594 C430.683992,129.849981 428.614013,126.178018 426.670003,122.578 L432.826003,122.578 C434.19401,125.530015 435.723995,128.526985 437.416003,131.569 C439.108012,134.611015 440.853994,137.535986 442.654003,140.344 C444.418012,137.535986 446.145995,134.611015 447.838003,131.569 C449.530012,128.526985 451.077996,125.530015 452.482003,122.578 L458.314003,122.578 C456.369993,126.178018 454.300014,129.840981 452.104003,133.567 C449.907992,137.293019 447.586015,141.063981 445.138003,144.88 L445.138003,160 L439.900003,160 Z M526.048004,160.81 C523.419991,160.81 521.026015,160.378004 518.866004,159.514 C516.705993,158.649996 514.852012,157.390008 513.304004,155.734 C511.755996,154.077992 510.559008,152.035012 509.713004,149.605 C508.867,147.174988 508.444004,144.394016 508.444004,141.262 C508.444004,138.129984 508.920999,135.349012 509.875004,132.919 C510.829009,130.488988 512.115996,128.446008 513.736004,126.79 C515.356012,125.133992 517.245993,123.874004 519.406004,123.01 C521.566015,122.145996 523.869992,121.714 526.318004,121.714 C527.866012,121.714 529.260998,121.821999 530.503004,122.038 C531.74501,122.254001 532.824999,122.505999 533.743004,122.794 C534.661008,123.082001 535.408001,123.369999 535.984004,123.658 C536.560007,123.946001 536.956003,124.161999 537.172004,124.306 L535.660004,128.626 C535.336002,128.409999 534.868007,128.176001 534.256004,127.924 C533.644001,127.671999 532.951008,127.420001 532.177004,127.168 C531.403,126.915999 530.557008,126.709001 529.639004,126.547 C528.720999,126.384999 527.794008,126.304 526.858004,126.304 C524.877994,126.304 523.096012,126.645997 521.512004,127.33 C519.927996,128.014003 518.578009,129.003994 517.462004,130.3 C516.345998,131.596006 515.491007,133.170991 514.897004,135.025 C514.303001,136.879009 514.006004,138.957988 514.006004,141.262 C514.006004,143.494011 514.267001,145.527991 514.789004,147.364 C515.311006,149.200009 516.093999,150.774993 517.138004,152.089 C518.182009,153.403007 519.486996,154.419996 521.053004,155.14 C522.619012,155.860004 524.445993,156.22 526.534004,156.22 C528.946016,156.22 530.943996,155.968003 532.528004,155.464 C534.112012,154.959997 535.3,154.510002 536.092004,154.114 L537.442004,158.434 C537.190003,158.614001 536.740007,158.838999 536.092004,159.109 C535.444001,159.379001 534.634009,159.639999 533.662004,159.892 C532.689999,160.144001 531.55601,160.359999 530.260004,160.54 C528.963997,160.720001 527.560011,160.81 526.048004,160.81 Z M584.080004,122.578 L589.318004,122.578 L589.318004,160 L584.080004,160 L584.080004,142.72 L565.774004,142.72 L565.774004,160 L560.536004,160 L560.536004,122.578 L565.774004,122.578 L565.774004,138.184 L584.080004,138.184 L584.080004,122.578 Z M629.638005,160.81 C627.189992,160.81 625.066014,160.432004 623.266005,159.676 C621.465996,158.919996 619.99001,157.885007 618.838005,156.571 C617.685999,155.256993 616.831007,153.700009 616.273005,151.9 C615.715002,150.099991 615.436005,148.15601 615.436005,146.068 L615.436005,122.578 L620.674005,122.578 L620.674005,145.474 C620.674005,149.218019 621.501996,151.935992 623.158005,153.628 C624.814013,155.320008 626.973991,156.166 629.638005,156.166 C630.970011,156.166 632.184999,155.959002 633.283005,155.545 C634.38101,155.130998 635.326001,154.492004 636.118005,153.628 C636.910009,152.763996 637.522002,151.657007 637.954005,150.307 C638.386007,148.956993 638.602005,147.346009 638.602005,145.474 L638.602005,122.578 L643.840005,122.578 L643.840005,146.068 C643.840005,148.15601 643.561007,150.099991 643.003005,151.9 C642.445002,153.700009 641.58101,155.256993 640.411005,156.571 C639.240999,157.885007 637.765013,158.919996 635.983005,159.676 C634.200996,160.432004 632.086017,160.81 629.638005,160.81 Z M688.264005,144.34 C688.840008,145.060004 689.569001,146.004994 690.451005,147.175 C691.333009,148.345006 692.242,149.640993 693.178005,151.063 C694.11401,152.485007 695.041,153.969992 695.959005,155.518 C696.87701,157.066008 697.660002,158.559993 698.308005,160 L692.584005,160 C691.864001,158.631993 691.081009,157.246007 690.235005,155.842 C689.389001,154.437993 688.534009,153.097006 687.670005,151.819 C686.806001,150.540994 685.951009,149.344006 685.105005,148.228 C684.259001,147.111994 683.494008,146.140004 682.810005,145.312 C682.342003,145.348 681.865007,145.366 681.379005,145.366 L675.196005,145.366 L675.196005,160 L669.958005,160 L669.958005,123.118 C671.434012,122.757998 673.080996,122.515001 674.899005,122.389 C676.717014,122.262999 678.381997,122.2 679.894005,122.2 C685.150031,122.2 689.154991,123.18999 691.909005,125.17 C694.663019,127.15001 696.040005,130.10198 696.040005,134.026 C696.040005,136.510012 695.383012,138.633991 694.069005,140.398 C692.754998,142.162009 690.820018,143.475996 688.264005,144.34 Z M680.326005,126.79 C678.093994,126.79 676.384011,126.843999 675.196005,126.952 L675.196005,141.046 L678.922005,141.046 C680.722014,141.046 682.341998,140.956001 683.782005,140.776 C685.222012,140.595999 686.437,140.254003 687.427005,139.75 C688.41701,139.245997 689.182002,138.535005 689.722005,137.617 C690.262008,136.698995 690.532005,135.484008 690.532005,133.972 C690.532005,132.567993 690.262008,131.398005 689.722005,130.462 C689.182002,129.525995 688.45301,128.788003 687.535005,128.248 C686.617,127.707997 685.537011,127.330001 684.295005,127.114 C683.052999,126.897999 681.730012,126.79 680.326005,126.79 Z M736.522005,160.81 C733.893992,160.81 731.500016,160.378004 729.340005,159.514 C727.179995,158.649996 725.326013,157.390008 723.778005,155.734 C722.229998,154.077992 721.03301,152.035012 720.187005,149.605 C719.341001,147.174988 718.918005,144.394016 718.918005,141.262 C718.918005,138.129984 719.395001,135.349012 720.349005,132.919 C721.30301,130.488988 722.589997,128.446008 724.210005,126.79 C725.830013,125.133992 727.719995,123.874004 729.880005,123.01 C732.040016,122.145996 734.343993,121.714 736.792005,121.714 C738.340013,121.714 739.734999,121.821999 740.977005,122.038 C742.219012,122.254001 743.299001,122.505999 744.217005,122.794 C745.13501,123.082001 745.882002,123.369999 746.458005,123.658 C747.034008,123.946001 747.430004,124.161999 747.646005,124.306 L746.134005,128.626 C745.810004,128.409999 745.342008,128.176001 744.730005,127.924 C744.118002,127.671999 743.425009,127.420001 742.651005,127.168 C741.877001,126.915999 741.03101,126.709001 740.113005,126.547 C739.195001,126.384999 738.26801,126.304 737.332005,126.304 C735.351995,126.304 733.570013,126.645997 731.986005,127.33 C730.401997,128.014003 729.052011,129.003994 727.936005,130.3 C726.82,131.596006 725.965008,133.170991 725.371005,135.025 C724.777002,136.879009 724.480005,138.957988 724.480005,141.262 C724.480005,143.494011 724.741003,145.527991 725.263005,147.364 C725.785008,149.200009 726.568,150.774993 727.612005,152.089 C728.656011,153.403007 729.960998,154.419996 731.527005,155.14 C733.093013,155.860004 734.919995,156.22 737.008005,156.22 C739.420017,156.22 741.417997,155.968003 743.002005,155.464 C744.586013,154.959997 745.774001,154.510002 746.566005,154.114 L747.916005,158.434 C747.664004,158.614001 747.214009,158.838999 746.566005,159.109 C745.918002,159.379001 745.10801,159.639999 744.136005,159.892 C743.164,160.144001 742.030012,160.359999 740.734005,160.54 C739.437999,160.720001 738.034013,160.81 736.522005,160.81 Z M794.554006,122.578 L799.792006,122.578 L799.792006,160 L794.554006,160 L794.554006,142.72 L776.248006,142.72 L776.248006,160 L771.010006,160 L771.010006,122.578 L776.248006,122.578 L776.248006,138.184 L794.554006,138.184 L794.554006,122.578 Z" id="community-church"></path>
            <path d="M81.16,2.98 L81.16,21.6 L51.9,21.6 L51.9,100 L30.06,100 L30.06,21.6 L0.8,21.6 L0.8,2.98 L81.16,2.98 Z M150.44,100 C149.413328,96.6399832 148.270006,93.1866844 147.01,89.64 C145.749994,86.0933156 144.513339,82.5466844 143.3,79 L105.5,79 C104.286661,82.5466844 103.050006,86.0933156 101.79,89.64 C100.529994,93.1866844 99.3866718,96.6399832 98.36,100 L75.68,100 C79.3200182,89.5466144 82.773317,79.886711 86.04,71.02 C89.306683,62.153289 92.5033177,53.8000392 95.63,45.96 C98.7566823,38.1199608 101.836651,30.6767019 104.87,23.63 C107.903348,16.5832981 111.053317,9.7000336 114.32,2.98 L135.18,2.98 C138.353349,9.7000336 141.479985,16.5832981 144.56,23.63 C147.640015,30.6767019 150.743318,38.1199608 153.87,45.96 C156.996682,53.8000392 160.193317,62.153289 163.46,71.02 C166.726683,79.886711 170.179982,89.5466144 173.82,100 L150.44,100 Z M124.26,24.96 C123.793331,26.360007 123.093338,28.2733212 122.16,30.7 C121.226662,33.1266788 120.153339,35.9266508 118.94,39.1 C117.726661,42.2733492 116.396674,45.7733142 114.95,49.6 C113.503326,53.4266858 112.033341,57.439979 110.54,61.64 L138.12,61.64 C136.626659,57.439979 135.180007,53.4266858 133.78,49.6 C132.379993,45.7733142 131.050006,42.2733492 129.79,39.1 C128.529994,35.9266508 127.433338,33.1266788 126.5,30.7 C125.566662,28.2733212 124.820003,26.360007 124.26,24.96 Z M253.04,81.24 L253.04,100 L188.22,100 L188.22,2.98 L210.06,2.98 L210.06,81.24 L253.04,81.24 Z M333.66,81.24 L333.66,100 L268.84,100 L268.84,2.98 L290.68,2.98 L290.68,81.24 L333.66,81.24 Z M393.98,19.78 C383.806616,19.78 376.456689,22.6033051 371.93,28.25 C367.403311,33.8966949 365.14,41.619951 365.14,51.42 C365.14,56.1800238 365.699994,60.4966473 366.82,64.37 C367.940005,68.2433527 369.619989,71.579986 371.86,74.38 C374.100011,77.180014 376.899983,79.3499923 380.26,80.89 C383.620017,82.4300077 387.539977,83.2 392.02,83.2 C394.446679,83.2 396.523325,83.1533338 398.25,83.06 C399.976675,82.9666662 401.493327,82.7800014 402.8,82.5 L402.8,48.76 L424.64,48.76 L424.64,96.78 C422.026653,97.8066718 417.826695,98.9033275 412.04,100.07 C406.253304,101.236673 399.113376,101.82 390.62,101.82 C383.339963,101.82 376.736696,100.700011 370.81,98.46 C364.883304,96.2199888 359.820021,92.9533548 355.62,88.66 C351.419979,84.3666452 348.176678,79.0933646 345.89,72.84 C343.603322,66.5866354 342.46,59.4467068 342.46,51.42 C342.46,43.2999594 343.719987,36.1133646 346.24,29.86 C348.760012,23.6066354 352.213311,18.3100217 356.6,13.97 C360.986688,9.6299783 366.143304,6.3400112 372.07,4.1 C377.996696,1.8599888 384.319966,0.74 391.04,0.74 C395.613356,0.74 399.743315,1.0433303 403.43,1.65 C407.116685,2.2566697 410.289987,2.9566627 412.95,3.75 C415.610013,4.5433373 417.803325,5.3599958 419.53,6.2 C421.256675,7.0400042 422.493329,7.693331 423.24,8.16 L416.94,25.66 C413.953318,24.0733254 410.523353,22.6966725 406.65,21.53 C402.776647,20.3633275 398.553356,19.78 393.98,19.78 Z M475.16,1.86 C489.720073,1.86 500.873294,4.4499741 508.62,9.63 C516.366705,14.8100259 520.24,22.8599454 520.24,33.78 C520.24,40.5933674 518.676682,46.1233121 515.55,50.37 C512.423317,54.6166879 507.920029,57.9533212 502.04,60.38 C504.00001,62.8066788 506.053322,65.5833177 508.2,68.71 C510.346677,71.8366823 512.469989,75.1033163 514.57,78.51 C516.67001,81.9166837 518.69999,85.4633149 520.66,89.15 C522.62001,92.8366851 524.439991,96.4533156 526.12,100 L501.62,100 C499.846658,96.8266508 498.050009,93.606683 496.23,90.34 C494.409991,87.073317 492.543343,83.9000154 490.63,80.82 C488.716657,77.7399846 486.826676,74.8233471 484.96,72.07 C483.093324,69.3166529 481.226676,66.8200112 479.36,64.58 L468.58,64.58 L468.58,100 L446.74,100 L446.74,4.38 C451.500024,3.446662 456.423308,2.7933352 461.51,2.42 C466.596692,2.0466648 471.146646,1.86 475.16,1.86 Z M476.42,20.48 C474.833325,20.48 473.410006,20.5266662 472.15,20.62 C470.889993,20.7133338 469.700005,20.8066662 468.58,20.9 L468.58,47.22 L474.74,47.22 C482.953374,47.22 488.833315,46.1933436 492.38,44.14 C495.926684,42.0866564 497.7,38.5866914 497.7,33.64 C497.7,28.8799762 495.903351,25.4966767 492.31,23.49 C488.716648,21.4833233 483.420035,20.48 476.42,20.48 Z M611.22,100 C610.193328,96.6399832 609.050006,93.1866844 607.79,89.64 C606.529993,86.0933156 605.293339,82.5466844 604.08,79 L566.28,79 C565.06666,82.5466844 563.830006,86.0933156 562.57,89.64 C561.309993,93.1866844 560.166672,96.6399832 559.14,100 L536.46,100 C540.100018,89.5466144 543.553317,79.886711 546.82,71.02 C550.086683,62.153289 553.283317,53.8000392 556.41,45.96 C559.536682,38.1199608 562.616651,30.6767019 565.65,23.63 C568.683348,16.5832981 571.833317,9.7000336 575.1,2.98 L595.96,2.98 C599.133349,9.7000336 602.259984,16.5832981 605.34,23.63 C608.420015,30.6767019 611.523317,38.1199608 614.65,45.96 C617.776682,53.8000392 620.973317,62.153289 624.24,71.02 C627.506683,79.886711 630.959982,89.5466144 634.6,100 L611.22,100 Z M585.04,24.96 C584.573331,26.360007 583.873338,28.2733212 582.94,30.7 C582.006662,33.1266788 580.933339,35.9266508 579.72,39.1 C578.50666,42.2733492 577.176674,45.7733142 575.73,49.6 C574.283326,53.4266858 572.813341,57.439979 571.32,61.64 L598.9,61.64 C597.406659,57.439979 595.960007,53.4266858 594.56,49.6 C593.159993,45.7733142 591.830006,42.2733492 590.57,39.1 C589.309993,35.9266508 588.213338,33.1266788 587.28,30.7 C586.346662,28.2733212 585.600003,26.360007 585.04,24.96 Z M678.12,83.34 C681.200015,83.34 683.743323,83.0833359 685.75,82.57 C687.756676,82.0566641 689.36666,81.3566711 690.58,80.47 C691.793339,79.5833289 692.633331,78.5333394 693.1,77.32 C693.566669,76.1066606 693.8,74.7533408 693.8,73.26 C693.8,70.0866508 692.306681,67.4500105 689.32,65.35 C686.333318,63.2499895 681.200036,60.9866788 673.92,58.56 C670.74665,57.4399944 667.573349,56.1566739 664.4,54.71 C661.22665,53.2633261 658.380012,51.4433443 655.86,49.25 C653.339987,47.0566557 651.286674,44.3966823 649.7,41.27 C648.113325,38.1433177 647.32,34.3400224 647.32,29.86 C647.32,25.3799776 648.159991,21.3433513 649.84,17.75 C651.520008,14.1566487 653.899984,11.1000126 656.98,8.58 C660.060015,6.0599874 663.793311,4.1233401 668.18,2.77 C672.566688,1.4166599 677.513305,0.74 683.02,0.74 C689.553366,0.74 695.199976,1.439993 699.96,2.84 C704.720023,4.240007 708.639984,5.7799916 711.72,7.46 L705.42,24.68 C702.713319,23.279993 699.70335,22.0433387 696.39,20.97 C693.07665,19.8966613 689.08669,19.36 684.42,19.36 C679.193307,19.36 675.436678,20.0833261 673.15,21.53 C670.863322,22.9766739 669.72,25.1933184 669.72,28.18 C669.72,29.9533422 670.139995,31.4466606 670.98,32.66 C671.820004,33.8733394 673.009992,34.9699951 674.55,35.95 C676.090007,36.9300049 677.863323,37.8166627 679.87,38.61 C681.876676,39.4033373 684.093321,40.2199958 686.52,41.06 C691.560025,42.926676 695.946648,44.7699909 699.68,46.59 C703.413352,48.4100091 706.516654,50.5333212 708.99,52.96 C711.463345,55.3866788 713.30666,58.233317 714.52,61.5 C715.733339,64.766683 716.34,68.73331 716.34,73.4 C716.34,82.4533786 713.166698,89.4766417 706.82,94.47 C700.473301,99.4633583 690.90673,101.96 678.12,101.96 C673.826645,101.96 669.95335,101.703336 666.5,101.19 C663.046649,100.676664 659.990013,100.04667 657.33,99.3 C654.669986,98.5533296 652.383343,97.7600042 650.47,96.92 C648.556657,96.0799958 646.946673,95.2866704 645.64,94.54 L651.8,77.18 C654.693347,78.7666746 658.263312,80.1899937 662.51,81.45 C666.756688,82.7100063 671.959969,83.34 678.12,83.34 Z M761.4,83.34 C764.480015,83.34 767.023323,83.0833359 769.03,82.57 C771.036676,82.0566641 772.64666,81.3566711 773.86,80.47 C775.073339,79.5833289 775.913331,78.5333394 776.38,77.32 C776.846669,76.1066606 777.08,74.7533408 777.08,73.26 C777.08,70.0866508 775.586681,67.4500105 772.6,65.35 C769.613318,63.2499895 764.480036,60.9866788 757.2,58.56 C754.02665,57.4399944 750.853349,56.1566739 747.68,54.71 C744.50665,53.2633261 741.660012,51.4433443 739.14,49.25 C736.619987,47.0566557 734.566674,44.3966823 732.98,41.27 C731.393325,38.1433177 730.6,34.3400224 730.6,29.86 C730.6,25.3799776 731.439991,21.3433513 733.12,17.75 C734.800008,14.1566487 737.179984,11.1000126 740.26,8.58 C743.340015,6.0599874 747.073311,4.1233401 751.46,2.77 C755.846688,1.4166599 760.793305,0.74 766.3,0.74 C772.833366,0.74 778.479976,1.439993 783.24,2.84 C788.000023,4.240007 791.919984,5.7799916 795,7.46 L788.7,24.68 C785.993319,23.279993 782.98335,22.0433387 779.67,20.97 C776.35665,19.8966613 772.36669,19.36 767.7,19.36 C762.473307,19.36 758.716678,20.0833261 756.43,21.53 C754.143322,22.9766739 753,25.1933184 753,28.18 C753,29.9533422 753.419995,31.4466606 754.26,32.66 C755.100004,33.8733394 756.289992,34.9699951 757.83,35.95 C759.370007,36.9300049 761.143323,37.8166627 763.15,38.61 C765.156676,39.4033373 767.373321,40.2199958 769.8,41.06 C774.840025,42.926676 779.226648,44.7699909 782.96,46.59 C786.693352,48.4100091 789.796654,50.5333212 792.27,52.96 C794.743345,55.3866788 796.58666,58.233317 797.8,61.5 C799.013339,64.766683 799.62,68.73331 799.62,73.4 C799.62,82.4533786 796.446698,89.4766417 790.1,94.47 C783.753301,99.4633583 774.18673,101.96 761.4,101.96 C757.106645,101.96 753.23335,101.703336 749.78,101.19 C746.326649,100.676664 743.270013,100.04667 740.61,99.3 C737.949986,98.5533296 735.663343,97.7600042 733.75,96.92 C731.836657,96.0799958 730.226673,95.2866704 728.92,94.54 L735.08,77.18 C737.973347,78.7666746 741.543312,80.1899937 745.79,81.45 C750.036688,82.7100063 755.239969,83.34 761.4,83.34 Z" id="tallgrass"></path>
        </g>
        <g id="icon" transform="translate(221.000000, 0.000000)">
            <g>
                <path d="M189.712859,5.39603257 L349.712859,94.2849215 C356.062162,97.8123124 360,104.504724 360,111.768067 L360,288.231933 C360,295.495276 356.062162,302.187688 349.712859,305.715079 L189.712859,394.603967 C183.672408,397.959773 176.327592,397.959773 170.287141,394.603967 L10.2871414,305.715079 C3.93783767,302.187688 1.20792265e-13,295.495276 1.20792265e-13,288.231933 L3.55271368e-14,111.768067 C2.48689958e-14,104.504724 3.93783767,97.8123124 10.2871414,94.2849215 L170.287141,5.39603257 C176.327592,2.0402266 183.672408,2.0402266 189.712859,5.39603257 Z" id="bg" fill="#F8C76E"></path>
                <path d="M360,148.645299 L360,288.231933 C360,295.495276 356.062162,302.187688 349.712859,305.715079 L189.712859,394.603967 C183.672408,397.959773 176.327592,397.959773 170.287141,394.603967 L10.2871414,305.715079 C8.71515533,304.841753 7.29098694,303.774418 6.03780099,302.552444 L360,148.645299 Z" id="hill-3" fill="#1B778F"></path>
                <path d="M360,265.895969 L360,288.231933 C360,295.495276 356.062162,302.187688 349.712859,305.715079 L189.712859,394.603967 C183.672408,397.959773 176.327592,397.959773 170.287141,394.603967 L10.2871414,305.715079 C3.93783767,302.187688 4.3031719e-14,295.495276 4.3031719e-14,288.231933 L0,199.173913 L360,265.895969 Z" id="hill-2" fill="#31B5B7"></path>
                <path d="M192.366108,270.231394 L207.899798,150.223807 C241.719278,84.4140543 246.673915,69.4701316 242.951497,75.1172716 C239.229078,80.7857296 223.381967,108.088767 223.381967,108.088767 L232.151332,81.1033679 C232.151332,81.1033679 231.282982,83.3033862 220.824146,103.73563 C236.100229,64.9123418 239.321388,41.2823972 239.503859,39.8317068 L209.201786,127.273907 C209.201786,127.273907 212.305948,33.9809798 209.018241,36.770441 C205.729461,39.5588363 204.725868,150.517996 204.725868,150.517996 L188.743512,270.893318 L185.766007,271.435862 L181.935179,170.405564 C181.935179,170.405564 194.242344,26.1114376 190.29452,22.0983229 C186.364943,18.0617583 178.966261,139.655405 178.966261,139.655405 L150.307504,22.2795259 C150.307504,22.2795259 151.198394,53.7097292 166.748185,107.680527 C157.066463,83.3257701 155.19452,78.0197182 154.874658,77.0668033 L162.913064,113.010029 C162.913064,113.010029 145.649115,75.615047 141.515599,67.8147884 C137.382083,60.0134638 141.972851,80.0598515 177.847818,169.611468 L181.396352,272.232089 L156.33443,276.80267 L149.76009,217.777373 C149.76009,217.777373 150.969768,114.371183 147.978309,111.718157 C144.96431,109.064066 146.037671,196.030874 146.037671,196.030874 L119.503098,113.91711 C119.503098,113.91711 121.762524,136.254117 135.668998,173.897454 C127.722901,157.571058 125.987275,153.624029 125.622333,152.785166 L133.204559,177.88925 C133.204559,177.88925 118.95461,152.127505 115.597135,146.799069 C112.240733,141.447184 116.57926,155.484025 146.791171,217.437351 L153.276423,277.360136" id="grass" fill="#305696"></path>
                <path d="M360,235.832183 L360,288.231933 C360,295.495276 356.062162,302.187688 349.712859,305.715079 L189.712859,394.603967 C183.672408,397.959773 176.327592,397.959773 170.287141,394.603967 L10.2871414,305.715079 C8.32070619,304.622615 6.5855777,303.226563 5.12710004,301.603987 L360,235.832183 Z" id="hill-1" fill="#305696"></path>
            </g>
        </g>
    </g>
</svg>