<?xml version="1.0" encoding="UTF-8"?>
<svg width="400px" height="400px" viewBox="0 0 400 400" version="1.1" xmlns="http://www.w3.org/2000/svg" xmlns:xlink="http://www.w3.org/1999/xlink">
    <!-- Generator: Sketch 54.1 (76490) - https://sketchapp.com -->
    <title>tallgrasschurch-logo-slack</title>
    <desc>Created with Sketch.</desc>
    <g id="tallgrasschurch-logo-slack" stroke="none" stroke-width="1" fill="none" fill-rule="evenodd">
        <rect fill="#FFFFFF" x="0" y="0" width="400" height="400"></rect>
        <rect id="bg" fill="#30487B" x="0" y="0" width="400" height="400"></rect>
        <path d="M207.174972,46.9790524 L332.986136,116.874143 C337.978719,119.647801 341.075118,124.910177 341.075118,130.621486 L341.075118,269.378514 C341.075118,275.089823 337.978719,280.352199 332.986136,283.125857 L207.174972,353.020948 C202.425246,355.659684 196.649872,355.659684 191.900146,353.020948 L66.0889827,283.125857 C61.0963996,280.352199 58,275.089823 58,269.378514 L58,130.621486 C58,124.910177 61.0963996,119.647801 66.0889827,116.874143 L191.900146,46.9790524 C196.649872,44.3403159 202.425246,44.3403159 207.174972,46.9790524 Z" id="border" fill="#FFFFFF"></path>
        <g id="icon" transform="translate(65.000000, 50.000000)">
            <g>
                <path d="M142.284644,4.04702443 L262.284644,70.7136911 C267.046622,73.3592343 270,78.3785434 270,83.8260502 L270,216.17395 C270,221.621457 267.046622,226.640766 262.284644,229.286309 L142.284644,295.952976 C137.754306,298.46983 132.245694,298.46983 127.715356,295.952976 L7.71535603,229.286309 C2.95337825,226.640766 6.39488462e-14,221.621457 6.39488462e-14,216.17395 L0,83.8260502 C-7.99360578e-15,78.3785434 2.95337825,73.3592343 7.71535603,70.7136911 L127.715356,4.04702443 C132.245694,1.53016995 137.754306,1.53016995 142.284644,4.04702443 Z" id="bg" fill="#F8C76E"></path>
                <path d="M270,111.483975 L270,216.17395 C270,221.621457 267.046622,226.640766 262.284644,229.286309 L142.284644,295.952976 C137.754306,298.46983 132.245694,298.46983 127.715356,295.952976 L7.71535603,229.286309 C6.5363665,228.631315 5.46824021,227.830814 4.52835074,226.914333 L270,111.483975 Z" id="hill-3" fill="#1B778F"></path>
                <path d="M270,199.421977 L270,216.17395 C270,221.621457 267.046622,226.640766 262.284644,229.286309 L142.284644,295.952976 C137.754306,298.46983 132.245694,298.46983 127.715356,295.952976 L7.71535603,229.286309 C2.95337825,226.640766 3.22737893e-14,221.621457 3.22737893e-14,216.17395 L0,149.380435 L270,199.421977 Z" id="hill-2" fill="#31B5B7"></path>
                <path d="M144.274581,202.673546 L155.924849,112.667855 C181.289458,63.3105408 185.005436,52.1025987 182.213623,56.3379537 C179.421809,60.5892972 167.536475,81.0665751 167.536475,81.0665751 L174.113499,60.8275259 C174.113499,60.8275259 173.462237,62.4775396 165.618109,77.8017223 C177.075172,48.6842563 179.491041,30.9617979 179.627894,29.8737801 L156.901339,95.4554302 C156.901339,95.4554302 159.229461,25.4857349 156.763681,27.5778308 C154.297096,29.6691272 153.544401,112.888497 153.544401,112.888497 L141.557634,203.169989 L139.324505,203.576896 L136.451384,127.804173 C136.451384,127.804173 145.681758,19.5835782 142.72089,16.5737422 C139.773707,13.5463187 134.224696,104.741554 134.224696,104.741554 L112.730628,16.7096445 C112.730628,16.7096445 113.398796,40.2822969 125.061139,80.7603952 C117.799847,62.4943276 116.39589,58.5147887 116.155994,57.8001025 L122.184798,84.7575215 C122.184798,84.7575215 109.236836,56.7112853 106.136699,50.8610913 C103.036562,45.0100979 106.479638,60.0448886 133.385863,127.208601 L136.047264,204.174067 L117.250823,207.602002 L112.320067,163.33303 C112.320067,163.33303 113.227326,85.7783875 110.983732,83.788618 C108.723232,81.7980492 109.528254,147.023156 109.528254,147.023156 L89.6273232,85.4378323 C89.6273232,85.4378323 91.321893,102.190588 101.751748,130.42309 C95.792176,118.178294 94.4904566,115.218022 94.2167494,114.588874 L99.9034195,133.416938 C99.9034195,133.416938 89.2159574,114.095629 86.6978509,110.099302 C84.1805494,106.085388 87.4344453,116.613019 110.093379,163.078013 L114.957317,208.020102" id="grass" fill="#305696"></path>
                <path d="M270,176.874137 L270,216.17395 C270,221.621457 267.046622,226.640766 262.284644,229.286309 L142.284644,295.952976 C137.754306,298.46983 132.245694,298.46983 127.715356,295.952976 L7.71535603,229.286309 C6.24052964,228.466961 4.93918328,227.419922 3.84532503,226.202991 L270,176.874137 L270,176.874137 Z" id="hill-1" fill="#305696"></path>
            </g>
        </g>
    </g>
</svg>