<?xml version="1.0" encoding="UTF-8"?>
<svg width="360px" height="400px" viewBox="0 0 360 400" version="1.1" xmlns="http://www.w3.org/2000/svg" xmlns:xlink="http://www.w3.org/1999/xlink">
    <!-- Generator: Sketch 51.2 (57519) - http://www.bohemiancoding.com/sketch -->
    <title>tallgrasschurch-logo-notext</title>
    <desc>Created with Sketch.</desc>
    <defs></defs>
    <g id="tallgrasschurch-logo-notext" stroke="none" stroke-width="1" fill="none" fill-rule="evenodd">
        <g id="icon">
            <g>
                <path d="M189.712859,5.39603257 L349.712859,94.2849215 C356.062162,97.8123124 360,104.504724 360,111.768067 L360,288.231933 C360,295.495276 356.062162,302.187688 349.712859,305.715079 L189.712859,394.603967 C183.672408,397.959773 176.327592,397.959773 170.287141,394.603967 L10.2871414,305.715079 C3.93783767,302.187688 1.20792265e-13,295.495276 1.20792265e-13,288.231933 L3.55271368e-14,111.768067 C2.48689958e-14,104.504724 3.93783767,97.8123124 10.2871414,94.2849215 L170.287141,5.39603257 C176.327592,2.0402266 183.672408,2.0402266 189.712859,5.39603257 Z" id="bg" fill="#F8C76E"></path>
                <path d="M360,148.471922 L360,288.231933 C360,295.495276 356.062162,302.187688 349.712859,305.715079 L189.712859,394.603967 C183.672408,397.959773 176.327592,397.959773 170.287141,394.603967 L10.2871414,305.715079 C8.66381321,304.81323 7.19811603,303.704492 5.91555928,302.432219 L360,148.471922 Z" id="hill-3" fill="#1B778F"></path>
                <path d="M360,265.895969 L360,288.231933 C360,295.495276 356.062162,302.187688 349.712859,305.715079 L189.712859,394.603967 C183.672408,397.959773 176.327592,397.959773 170.287141,394.603967 L10.2871414,305.715079 C3.93783767,302.187688 4.3031719e-14,295.495276 4.3031719e-14,288.231933 L0,199.173913 L360,265.895969 Z" id="hill-2" fill="#31B5B7"></path>
                <path d="M192.366108,270.231394 L207.899798,150.223807 C241.719278,84.4140543 246.673915,69.4701316 242.951497,75.1172716 C239.229078,80.7857296 223.381967,108.088767 223.381967,108.088767 L232.151332,81.1033679 C232.151332,81.1033679 231.282982,83.3033862 220.824146,103.73563 C236.100229,64.9123418 239.321388,41.2823972 239.503859,39.8317068 L209.201786,127.273907 C209.201786,127.273907 212.305948,33.9809798 209.018241,36.770441 C205.729461,39.5588363 204.725868,150.517996 204.725868,150.517996 L188.743512,270.893318 L185.766007,271.435862 L181.935179,170.405564 C181.935179,170.405564 194.242344,26.1114376 190.29452,22.0983229 C186.364943,18.0617583 178.966261,139.655405 178.966261,139.655405 L150.307504,22.2795259 C150.307504,22.2795259 151.198394,53.7097292 166.748185,107.680527 C157.066463,83.3257701 155.19452,78.0197182 154.874658,77.0668033 L162.913064,113.010029 C162.913064,113.010029 145.649115,75.615047 141.515599,67.8147884 C137.382083,60.0134638 141.972851,80.0598515 177.847818,169.611468 L181.396352,272.232089 L156.33443,276.80267 L149.76009,217.777373 C149.76009,217.777373 150.969768,114.371183 147.978309,111.718157 C144.96431,109.064066 146.037671,196.030874 146.037671,196.030874 L119.503098,113.91711 C119.503098,113.91711 121.762524,136.254117 135.668998,173.897454 C127.722901,157.571058 125.987275,153.624029 125.622333,152.785166 L133.204559,177.88925 C133.204559,177.88925 118.95461,152.127505 115.597135,146.799069 C112.240733,141.447184 116.57926,155.484025 146.791171,217.437351 L153.276423,277.360136" id="grass" fill="#305696"></path>
                <path d="M360,235.685574 L360,288.231933 C360,295.495276 356.062162,302.187688 349.712859,305.715079 L189.712859,394.603967 C183.672408,397.959773 176.327592,397.959773 170.287141,394.603967 L10.2871414,305.715079 C8.27005781,304.594477 6.49634968,303.154447 5.01495581,301.478163 L360,235.685574 Z" id="hill-1" fill="#305696"></path>
            </g>
        </g>
    </g>
</svg>