<?xml version="1.0" encoding="UTF-8"?>
<svg width="360px" height="400px" viewBox="0 0 360 400" version="1.1" xmlns="http://www.w3.org/2000/svg" xmlns:xlink="http://www.w3.org/1999/xlink">
    <!-- Generator: Sketch 51.2 (57519) - http://www.bohemiancoding.com/sketch -->
    <title>tallgrasschurch-logo-sticker</title>
    <desc>Created with Sketch.</desc>
    <defs></defs>
    <g id="tallgrasschurch-logo-sticker" stroke="none" stroke-width="1" fill="none" fill-rule="evenodd">
        <g id="icon">
            <g>
                <path d="M189.712859,5.39603257 L349.712859,94.2849215 C356.062162,97.8123124 360,104.504724 360,111.768067 L360,288.231933 C360,295.495276 356.062162,302.187688 349.712859,305.715079 L189.712859,394.603967 C183.672408,397.959773 176.327592,397.959773 170.287141,394.603967 L10.2871414,305.715079 C3.93783767,302.187688 8.52651283e-14,295.495276 8.52651283e-14,288.231933 L0,111.768067 C-1.0658141e-14,104.504724 3.93783767,97.8123124 10.2871414,94.2849215 L170.287141,5.39603257 C176.327592,2.0402266 183.672408,2.0402266 189.712859,5.39603257 Z" id="bg" fill="#F8C76E"></path>
                <path d="M360,148.645299 L360,288.231933 C360,295.495276 356.062162,302.187688 349.712859,305.715079 L189.712859,394.603967 C183.672408,397.959773 176.327592,397.959773 170.287141,394.603967 L10.2871414,305.715079 C8.71515533,304.841753 7.29098694,303.774418 6.03780099,302.552444 L360,148.645299 Z" id="hill-3" fill="#1B778F"></path>
                <path d="M360,265.895969 L360,288.231933 C360,295.495276 356.062162,302.187688 349.712859,305.715079 L189.712859,394.603967 C183.672408,397.959773 176.327592,397.959773 170.287141,394.603967 L10.2871414,305.715079 C3.93783767,302.187688 4.3031719e-14,295.495276 4.3031719e-14,288.231933 L0,199.173913 L360,265.895969 Z" id="hill-2" fill="#31B5B7"></path>
                <path d="M192.366108,270.231394 L207.899798,150.223807 C241.719278,84.4140543 246.673915,69.4701316 242.951497,75.1172716 C239.229078,80.7857296 223.381967,108.088767 223.381967,108.088767 L232.151332,81.1033679 C232.151332,81.1033679 231.282982,83.3033862 220.824146,103.73563 C236.100229,64.9123418 239.321388,41.2823972 239.503859,39.8317068 L209.201786,127.273907 C209.201786,127.273907 212.305948,33.9809798 209.018241,36.770441 C205.729461,39.5588363 204.725868,150.517996 204.725868,150.517996 L188.743512,270.893318 L185.766007,271.435862 L181.935179,170.405564 C181.935179,170.405564 194.242344,26.1114376 190.29452,22.0983229 C186.364943,18.0617583 178.966261,139.655405 178.966261,139.655405 L150.307504,22.2795259 C150.307504,22.2795259 151.198394,53.7097292 166.748185,107.680527 C157.066463,83.3257701 155.19452,78.0197182 154.874658,77.0668033 L162.913064,113.010029 C162.913064,113.010029 145.649115,75.615047 141.515599,67.8147884 C137.382083,60.0134638 141.972851,80.0598515 177.847818,169.611468 L181.396352,272.232089 L156.33443,276.80267 L149.76009,217.777373 C149.76009,217.777373 150.969768,114.371183 147.978309,111.718157 C144.96431,109.064066 146.037671,196.030874 146.037671,196.030874 L119.503098,113.91711 C119.503098,113.91711 121.762524,136.254117 135.668998,173.897454 C127.722901,157.571058 125.987275,153.624029 125.622333,152.785166 L133.204559,177.88925 C133.204559,177.88925 118.95461,152.127505 115.597135,146.799069 C112.240733,141.447184 116.57926,155.484025 146.791171,217.437351 L153.276423,277.360136" id="grass" fill="#305696"></path>
                <path d="M360,235.832183 L360,288.231933 C360,295.495276 356.062162,302.187688 349.712859,305.715079 L189.712859,394.603967 C183.672408,397.959773 176.327592,397.959773 170.287141,394.603967 L10.2871414,305.715079 C8.32070619,304.622615 6.5855777,303.226563 5.12710004,301.603987 L360,235.832183 Z" id="hill-1" fill="#305696"></path>
            </g>
        </g>
        <g id="text" transform="translate(71.000000, 253.000000)" fill="#FFFFFF">
            <path d="M29.129909,25.3412673 L29.129909,31.7252673 L19.097909,31.7252673 L19.097909,58.6052673 L11.609909,58.6052673 L11.609909,31.7252673 L1.57790898,31.7252673 L1.57790898,25.3412673 L29.129909,25.3412673 Z M56.201909,58.6052673 C55.8499072,57.4532615 55.4579111,56.2692733 55.025909,55.0532673 C54.5939068,53.8372612 54.1699111,52.6212733 53.753909,51.4052673 L40.793909,51.4052673 C40.3779069,52.6212733 39.9539111,53.8372612 39.521909,55.0532673 C39.0899068,56.2692733 38.6979107,57.4532615 38.345909,58.6052673 L30.569909,58.6052673 C31.8179152,55.0212493 33.0019034,51.7092825 34.121909,48.6692673 C35.2419146,45.6292521 36.3379036,42.7652807 37.409909,40.0772673 C38.4819143,37.3892538 39.5379038,34.8372793 40.577909,32.4212673 C41.6179142,30.0052552 42.6979034,27.6452788 43.817909,25.3412673 L50.969909,25.3412673 C52.0579144,27.6452788 53.1299037,30.0052552 54.185909,32.4212673 C55.2419143,34.8372793 56.3059036,37.3892538 57.377909,40.0772673 C58.4499143,42.7652807 59.5459034,45.6292521 60.665909,48.6692673 C61.7859146,51.7092825 62.9699027,55.0212493 64.217909,58.6052673 L56.201909,58.6052673 Z M47.225909,32.8772673 C47.0659082,33.3572697 46.8259106,34.0132631 46.505909,34.8452673 C46.1859074,35.6772714 45.8179111,36.6372618 45.401909,37.7252673 C44.9859069,38.8132727 44.5299115,40.0132607 44.033909,41.3252673 C43.5379065,42.6372738 43.0339115,44.0132601 42.521909,45.4532673 L51.977909,45.4532673 C51.4659064,44.0132601 50.9699114,42.6372738 50.489909,41.3252673 C50.0099066,40.0132607 49.5539111,38.8132727 49.121909,37.7252673 C48.6899068,36.6372618 48.3139106,35.6772714 47.993909,34.8452673 C47.6739074,34.0132631 47.4179099,33.3572697 47.225909,32.8772673 Z M90.761909,52.1732673 L90.761909,58.6052673 L68.537909,58.6052673 L68.537909,25.3412673 L76.025909,25.3412673 L76.025909,52.1732673 L90.761909,52.1732673 Z M117.785909,52.1732673 L117.785909,58.6052673 L95.561909,58.6052673 L95.561909,25.3412673 L103.049909,25.3412673 L103.049909,52.1732673 L117.785909,52.1732673 Z M138.809909,31.1012673 C135.321892,31.1012673 132.801917,32.0692576 131.249909,34.0052673 C129.697901,35.9412769 128.921909,38.5892505 128.921909,41.9492673 C128.921909,43.5812754 129.113907,45.0612606 129.497909,46.3892673 C129.881911,47.7172739 130.457905,48.8612625 131.225909,49.8212673 C131.993913,50.7812721 132.953903,51.5252646 134.105909,52.0532673 C135.257915,52.5812699 136.601901,52.8452673 138.137909,52.8452673 C138.969913,52.8452673 139.681906,52.8292674 140.273909,52.7972673 C140.865912,52.7652671 141.385907,52.7012677 141.833909,52.6052673 L141.833909,41.0372673 L149.321909,41.0372673 L149.321909,57.5012673 C148.425904,57.853269 146.985919,58.2292653 145.001909,58.6292673 C143.017899,59.0292693 140.569924,59.2292673 137.657909,59.2292673 C135.161896,59.2292673 132.897919,58.8452711 130.865909,58.0772673 C128.833899,57.3092634 127.097916,56.1892746 125.657909,54.7172673 C124.217902,53.2452599 123.105913,51.437278 122.321909,49.2932673 C121.537905,47.1492565 121.145909,44.701281 121.145909,41.9492673 C121.145909,39.1652533 121.577905,36.701278 122.441909,34.5572673 C123.305913,32.4132565 124.489901,30.5972747 125.993909,29.1092673 C127.497916,27.6212598 129.265899,26.4932711 131.297909,25.7252673 C133.329919,24.9572634 135.497897,24.5732673 137.801909,24.5732673 C139.369917,24.5732673 140.785903,24.6772662 142.049909,24.8852673 C143.313915,25.0932683 144.401904,25.3332659 145.313909,25.6052673 C146.225914,25.8772686 146.977906,26.1572658 147.569909,26.4452673 C148.161912,26.7332687 148.585908,26.9572665 148.841909,27.1172673 L146.681909,33.1172673 C145.657904,32.5732645 144.481916,32.1012693 143.153909,31.7012673 C141.825902,31.3012653 140.377917,31.1012673 138.809909,31.1012673 Z M166.025909,24.9572673 C171.017934,24.9572673 174.841896,25.8452584 177.497909,27.6212673 C180.153922,29.3972761 181.481909,32.1572485 181.481909,35.9012673 C181.481909,38.2372789 180.945914,40.13326 179.873909,41.5892673 C178.801904,43.0452745 177.257919,44.1892631 175.241909,45.0212673 C175.913912,45.8532714 176.617905,46.8052619 177.353909,47.8772673 C178.089913,48.9492726 178.817905,50.0692614 179.537909,51.2372673 C180.257913,52.4052731 180.953906,53.6212609 181.625909,54.8852673 C182.297912,56.1492736 182.921906,57.3892612 183.497909,58.6052673 L175.097909,58.6052673 C174.489906,57.5172618 173.873912,56.4132729 173.249909,55.2932673 C172.625906,54.1732617 171.985912,53.0852725 171.329909,52.0292673 C170.673906,50.973262 170.025912,49.973272 169.385909,49.0292673 C168.745906,48.0852625 168.105912,47.2292711 167.465909,46.4612673 L163.769909,46.4612673 L163.769909,58.6052673 L156.281909,58.6052673 L156.281909,25.8212673 C157.913917,25.5012657 159.6019,25.2772679 161.345909,25.1492673 C163.089918,25.0212666 164.649902,24.9572673 166.025909,24.9572673 Z M166.457909,31.3412673 C165.913906,31.3412673 165.425911,31.3572671 164.993909,31.3892673 C164.561907,31.4212674 164.153911,31.4532671 163.769909,31.4852673 L163.769909,40.5092673 L165.881909,40.5092673 C168.697923,40.5092673 170.713903,40.1572708 171.929909,39.4532673 C173.145915,38.7492637 173.753909,37.5492757 173.753909,35.8532673 C173.753909,34.2212591 173.137915,33.0612707 171.905909,32.3732673 C170.673903,31.6852638 168.857921,31.3412673 166.457909,31.3412673 Z M210.569909,58.6052673 C210.217907,57.4532615 209.825911,56.2692733 209.393909,55.0532673 C208.961907,53.8372612 208.537911,52.6212733 208.121909,51.4052673 L195.161909,51.4052673 C194.745907,52.6212733 194.321911,53.8372612 193.889909,55.0532673 C193.457907,56.2692733 193.065911,57.4532615 192.713909,58.6052673 L184.937909,58.6052673 C186.185915,55.0212493 187.369903,51.7092825 188.489909,48.6692673 C189.609915,45.6292521 190.705904,42.7652807 191.777909,40.0772673 C192.849914,37.3892538 193.905904,34.8372793 194.945909,32.4212673 C195.985914,30.0052552 197.065903,27.6452788 198.185909,25.3412673 L205.337909,25.3412673 C206.425914,27.6452788 207.497904,30.0052552 208.553909,32.4212673 C209.609914,34.8372793 210.673904,37.3892538 211.745909,40.0772673 C212.817914,42.7652807 213.913903,45.6292521 215.033909,48.6692673 C216.153915,51.7092825 217.337903,55.0212493 218.585909,58.6052673 L210.569909,58.6052673 Z M201.593909,32.8772673 C201.433908,33.3572697 201.193911,34.0132631 200.873909,34.8452673 C200.553907,35.6772714 200.185911,36.6372618 199.769909,37.7252673 C199.353907,38.8132727 198.897911,40.0132607 198.401909,41.3252673 C197.905906,42.6372738 197.401912,44.0132601 196.889909,45.4532673 L206.345909,45.4532673 C205.833906,44.0132601 205.337911,42.6372738 204.857909,41.3252673 C204.377907,40.0132607 203.921911,38.8132727 203.489909,37.7252673 C203.057907,36.6372618 202.681911,35.6772714 202.361909,34.8452673 C202.041907,34.0132631 201.78591,33.3572697 201.593909,32.8772673 Z M231.977909,52.8932673 C233.033914,52.8932673 233.905906,52.8052681 234.593909,52.6292673 C235.281912,52.4532664 235.833907,52.2132688 236.249909,51.9092673 C236.665911,51.6052657 236.953908,51.2452693 237.113909,50.8292673 C237.27391,50.4132652 237.353909,49.9492698 237.353909,49.4372673 C237.353909,48.3492618 236.841914,47.4452709 235.817909,46.7252673 C234.793904,46.0052637 233.033921,45.2292714 230.537909,44.3972673 C229.449904,44.0132653 228.361914,43.5732697 227.273909,43.0772673 C226.185904,42.5812648 225.209913,41.957271 224.345909,41.2052673 C223.481905,40.4532635 222.777912,39.5412726 222.233909,38.4692673 C221.689906,37.3972619 221.417909,36.0932749 221.417909,34.5572673 C221.417909,33.0212596 221.705906,31.6372734 222.281909,30.4052673 C222.857912,29.1732611 223.673904,28.1252716 224.729909,27.2612673 C225.785914,26.3972629 227.065901,25.7332696 228.569909,25.2692673 C230.073916,24.8052649 231.7699,24.5732673 233.657909,24.5732673 C235.89792,24.5732673 237.833901,24.8132649 239.465909,25.2932673 C241.097917,25.7732697 242.441904,26.3012644 243.497909,26.8772673 L241.337909,32.7812673 C240.409904,32.3012649 239.377915,31.8772691 238.241909,31.5092673 C237.105903,31.1412654 235.737917,30.9572673 234.137909,30.9572673 C232.3459,30.9572673 231.057913,31.2052648 230.273909,31.7012673 C229.489905,32.1972697 229.097909,32.9572621 229.097909,33.9812673 C229.097909,34.5892703 229.241908,35.1012652 229.529909,35.5172673 C229.81791,35.9332693 230.225906,36.3092656 230.753909,36.6452673 C231.281912,36.9812689 231.889906,37.2852659 232.577909,37.5572673 C233.265912,37.8292686 234.025905,38.1092658 234.857909,38.3972673 C236.585918,39.0372705 238.089903,39.6692641 239.369909,40.2932673 C240.649915,40.9172704 241.713905,41.6452631 242.561909,42.4772673 C243.409913,43.3092714 244.041907,44.2852617 244.457909,45.4052673 C244.873911,46.5252729 245.081909,47.8852593 245.081909,49.4852673 C245.081909,52.5892828 243.99392,54.9972587 241.817909,56.7092673 C239.641898,58.4212758 236.361931,59.2772673 231.977909,59.2772673 C230.505902,59.2772673 229.177915,59.1892681 227.993909,59.0132673 C226.809903,58.8372664 225.761914,58.6212685 224.849909,58.3652673 C223.937904,58.109266 223.153912,57.8372687 222.497909,57.5492673 C221.841906,57.2612658 221.289911,56.9892685 220.841909,56.7332673 L222.953909,50.7812673 C223.945914,51.32527 225.169902,51.8132651 226.625909,52.2452673 C228.081916,52.6772694 229.865898,52.8932673 231.977909,52.8932673 Z M259.913909,52.8932673 C260.969914,52.8932673 261.841906,52.8052681 262.529909,52.6292673 C263.217912,52.4532664 263.769907,52.2132688 264.185909,51.9092673 C264.601911,51.6052657 264.889908,51.2452693 265.049909,50.8292673 C265.20991,50.4132652 265.289909,49.9492698 265.289909,49.4372673 C265.289909,48.3492618 264.777914,47.4452709 263.753909,46.7252673 C262.729904,46.0052637 260.969921,45.2292714 258.473909,44.3972673 C257.385904,44.0132653 256.297914,43.5732697 255.209909,43.0772673 C254.121904,42.5812648 253.145913,41.957271 252.281909,41.2052673 C251.417905,40.4532635 250.713912,39.5412726 250.169909,38.4692673 C249.625906,37.3972619 249.353909,36.0932749 249.353909,34.5572673 C249.353909,33.0212596 249.641906,31.6372734 250.217909,30.4052673 C250.793912,29.1732611 251.609904,28.1252716 252.665909,27.2612673 C253.721914,26.3972629 255.001901,25.7332696 256.505909,25.2692673 C258.009916,24.8052649 259.7059,24.5732673 261.593909,24.5732673 C263.83392,24.5732673 265.769901,24.8132649 267.401909,25.2932673 C269.033917,25.7732697 270.377904,26.3012644 271.433909,26.8772673 L269.273909,32.7812673 C268.345904,32.3012649 267.313915,31.8772691 266.177909,31.5092673 C265.041903,31.1412654 263.673917,30.9572673 262.073909,30.9572673 C260.2819,30.9572673 258.993913,31.2052648 258.209909,31.7012673 C257.425905,32.1972697 257.033909,32.9572621 257.033909,33.9812673 C257.033909,34.5892703 257.177908,35.1012652 257.465909,35.5172673 C257.75391,35.9332693 258.161906,36.3092656 258.689909,36.6452673 C259.217912,36.9812689 259.825906,37.2852659 260.513909,37.5572673 C261.201912,37.8292686 261.961905,38.1092658 262.793909,38.3972673 C264.521918,39.0372705 266.025903,39.6692641 267.305909,40.2932673 C268.585915,40.9172704 269.649905,41.6452631 270.497909,42.4772673 C271.345913,43.3092714 271.977907,44.2852617 272.393909,45.4052673 C272.809911,46.5252729 273.017909,47.8852593 273.017909,49.4852673 C273.017909,52.5892828 271.92992,54.9972587 269.753909,56.7092673 C267.577898,58.4212758 264.297931,59.2772673 259.913909,59.2772673 C258.441902,59.2772673 257.113915,59.1892681 255.929909,59.0132673 C254.745903,58.8372664 253.697914,58.6212685 252.785909,58.3652673 C251.873904,58.109266 251.089912,57.8372687 250.433909,57.5492673 C249.777906,57.2612658 249.225911,56.9892685 248.777909,56.7332673 L250.889909,50.7812673 C251.881914,51.32527 253.105902,51.8132651 254.561909,52.2452673 C256.017916,52.6772694 257.801898,52.8932673 259.913909,52.8932673 Z" id="Tallgrass" transform="translate(137.297909, 41.925267) rotate(-10.500000) translate(-137.297909, -41.925267) "></path>
            <path d="M75.3705323,96.2299826 C73.8131912,96.2299826 72.3945387,95.9739852 71.1145323,95.4619826 C69.8345259,94.9499801 68.7358703,94.2033209 67.8185323,93.2219826 C66.9011944,92.2406444 66.1918682,91.0299898 65.6905323,89.5899826 C65.1891965,88.1499754 64.9385323,86.5019919 64.9385323,84.6459826 C64.9385323,82.7899734 65.2211962,81.1419898 65.7865323,79.7019826 C66.3518685,78.2619754 67.1145275,77.0513209 68.0745323,76.0699826 C69.0345371,75.0886444 70.1545259,74.3419852 71.4345323,73.8299826 C72.7145387,73.3179801 74.0798584,73.0619826 75.5305323,73.0619826 C76.4478703,73.0619826 77.2745287,73.125982 78.0105323,73.2539826 C78.746536,73.3819833 79.3865296,73.5313151 79.9305323,73.7019826 C80.4745351,73.8726502 80.9171973,74.0433151 81.2585323,74.2139826 C81.5998674,74.3846502 81.8345317,74.5126489 81.9625323,74.5979826 L81.0665323,77.1579826 C80.8745314,77.029982 80.5972008,76.8913167 80.2345323,76.7419826 C79.8718639,76.5926486 79.4612013,76.4433167 79.0025323,76.2939826 C78.5438634,76.1446486 78.0425351,76.0219831 77.4985323,75.9259826 C76.9545296,75.8299822 76.4052018,75.7819826 75.8505323,75.7819826 C74.6771931,75.7819826 73.6212037,75.9846473 72.6825323,76.3899826 C71.743861,76.795318 70.943869,77.3819788 70.2825323,78.1499826 C69.6211957,78.9179865 69.1145341,79.8513105 68.7625323,80.9499826 C68.4105306,82.0486548 68.2345323,83.2806425 68.2345323,84.6459826 C68.2345323,85.9686559 68.3891975,87.1739772 68.6985323,88.2619826 C69.0078672,89.3499881 69.4718626,90.2833121 70.0905323,91.0619826 C70.7092021,91.8406532 71.4825277,92.4433138 72.4105323,92.8699826 C73.338537,93.2966514 74.4211928,93.5099826 75.6585323,93.5099826 C77.0878728,93.5099826 78.271861,93.3606508 79.2105323,93.0619826 C80.1492037,92.7633145 80.8531967,92.4966505 81.3225323,92.2619826 L82.1225323,94.8219826 C81.9731983,94.9286498 81.7065343,95.0619818 81.3225323,95.2219826 C80.9385304,95.3819834 80.4585352,95.5366486 79.8825323,95.6859826 C79.3065295,95.8353167 78.6345362,95.9633154 77.8665323,96.0699826 C77.0985285,96.1766498 76.2665368,96.2299826 75.3705323,96.2299826 Z M99.6265323,73.5739826 L102.730532,73.5739826 L102.730532,95.7499826 L99.6265323,95.7499826 L99.6265323,85.5099826 L88.7785323,85.5099826 L88.7785323,95.7499826 L85.6745323,95.7499826 L85.6745323,73.5739826 L88.7785323,73.5739826 L88.7785323,82.8219826 L99.6265323,82.8219826 L99.6265323,73.5739826 Z M116.490532,96.2299826 C115.039858,96.2299826 113.781204,96.0059849 112.714532,95.5579826 C111.64786,95.1099804 110.773202,94.4966532 110.090532,93.7179826 C109.407862,92.9393121 108.901201,92.0166546 108.570532,90.9499826 C108.239864,89.8833106 108.074532,88.7313222 108.074532,87.4939826 L108.074532,73.5739826 L111.178532,73.5739826 L111.178532,87.1419826 C111.178532,89.3606604 111.669194,90.971311 112.650532,91.9739826 C113.631871,92.9766543 114.911858,93.4779826 116.490532,93.4779826 C117.27987,93.4779826 117.999862,93.3553172 118.650532,93.1099826 C119.301202,92.8646481 119.861197,92.4859852 120.330532,91.9739826 C120.799868,91.4619801 121.162531,90.8059866 121.418532,90.0059826 C121.674534,89.2059786 121.802532,88.2513215 121.802532,87.1419826 L121.802532,73.5739826 L124.906532,73.5739826 L124.906532,87.4939826 C124.906532,88.7313222 124.741201,89.8833106 124.410532,90.9499826 C124.079864,92.0166546 123.567869,92.9393121 122.874532,93.7179826 C122.181196,94.4966532 121.306538,95.1099804 120.250532,95.5579826 C119.194527,96.0059849 117.941206,96.2299826 116.490532,96.2299826 Z M141.098532,86.4699826 C141.439867,86.8966514 141.871863,87.4566458 142.394532,88.1499826 C142.917202,88.8433194 143.455863,89.6113118 144.010532,90.4539826 C144.565202,91.2966535 145.11453,92.1766447 145.658532,93.0939826 C146.202535,94.0113206 146.66653,94.896645 147.050532,95.7499826 L143.658532,95.7499826 C143.231864,94.9393119 142.767868,94.1179868 142.266532,93.2859826 C141.765196,92.4539785 141.258535,91.6593198 140.746532,90.9019826 C140.23453,90.1446455 139.727868,89.4353193 139.226532,88.7739826 C138.725196,88.112646 138.271868,87.5366518 137.866532,87.0459826 C137.589198,87.0673161 137.306534,87.0779826 137.018532,87.0779826 L133.354532,87.0779826 L133.354532,95.7499826 L130.250532,95.7499826 L130.250532,73.8939826 C131.125203,73.6806482 132.101194,73.5366497 133.178532,73.4619826 C134.255871,73.3873156 135.242528,73.3499826 136.138532,73.3499826 C139.253215,73.3499826 141.626524,73.9366434 143.258532,75.1099826 C144.89054,76.2833218 145.706532,78.0326377 145.706532,80.3579826 C145.706532,81.82999 145.317203,83.0886441 144.538532,84.1339826 C143.759862,85.1793212 142.613207,85.9579801 141.098532,86.4699826 Z M136.394532,76.0699826 C135.071859,76.0699826 134.058536,76.1019823 133.354532,76.1659826 L133.354532,84.5179826 L135.562532,84.5179826 C136.629204,84.5179826 137.589195,84.4646498 138.442532,84.3579826 C139.29587,84.2513154 140.015863,84.0486508 140.602532,83.7499826 C141.189202,83.4513145 141.642531,83.0299854 141.962532,82.4859826 C142.282534,81.9419799 142.442532,81.2219871 142.442532,80.3259826 C142.442532,79.4939785 142.282534,78.8006521 141.962532,78.2459826 C141.642531,77.6913132 141.210535,77.2539842 140.666532,76.9339826 C140.12253,76.613981 139.482536,76.3899833 138.746532,76.2619826 C138.010529,76.133982 137.226536,76.0699826 136.394532,76.0699826 Z M159.914532,96.2299826 C158.357191,96.2299826 156.938539,95.9739852 155.658532,95.4619826 C154.378526,94.9499801 153.27987,94.2033209 152.362532,93.2219826 C151.445194,92.2406444 150.735868,91.0299898 150.234532,89.5899826 C149.733196,88.1499754 149.482532,86.5019919 149.482532,84.6459826 C149.482532,82.7899734 149.765196,81.1419898 150.330532,79.7019826 C150.895868,78.2619754 151.658528,77.0513209 152.618532,76.0699826 C153.578537,75.0886444 154.698526,74.3419852 155.978532,73.8299826 C157.258539,73.3179801 158.623858,73.0619826 160.074532,73.0619826 C160.99187,73.0619826 161.818529,73.125982 162.554532,73.2539826 C163.290536,73.3819833 163.93053,73.5313151 164.474532,73.7019826 C165.018535,73.8726502 165.461197,74.0433151 165.802532,74.2139826 C166.143867,74.3846502 166.378532,74.5126489 166.506532,74.5979826 L165.610532,77.1579826 C165.418531,77.029982 165.141201,76.8913167 164.778532,76.7419826 C164.415864,76.5926486 164.005201,76.4433167 163.546532,76.2939826 C163.087863,76.1446486 162.586535,76.0219831 162.042532,75.9259826 C161.49853,75.8299822 160.949202,75.7819826 160.394532,75.7819826 C159.221193,75.7819826 158.165204,75.9846473 157.226532,76.3899826 C156.287861,76.795318 155.487869,77.3819788 154.826532,78.1499826 C154.165196,78.9179865 153.658534,79.8513105 153.306532,80.9499826 C152.954531,82.0486548 152.778532,83.2806425 152.778532,84.6459826 C152.778532,85.9686559 152.933197,87.1739772 153.242532,88.2619826 C153.551867,89.3499881 154.015863,90.2833121 154.634532,91.0619826 C155.253202,91.8406532 156.026528,92.4433138 156.954532,92.8699826 C157.882537,93.2966514 158.965193,93.5099826 160.202532,93.5099826 C161.631873,93.5099826 162.815861,93.3606508 163.754532,93.0619826 C164.693204,92.7633145 165.397197,92.4966505 165.866532,92.2619826 L166.666532,94.8219826 C166.517198,94.9286498 166.250534,95.0619818 165.866532,95.2219826 C165.48253,95.3819834 165.002535,95.5366486 164.426532,95.6859826 C163.850529,95.8353167 163.178536,95.9633154 162.410532,96.0699826 C161.642528,96.1766498 160.810537,96.2299826 159.914532,96.2299826 Z M184.170532,73.5739826 L187.274532,73.5739826 L187.274532,95.7499826 L184.170532,95.7499826 L184.170532,85.5099826 L173.322532,85.5099826 L173.322532,95.7499826 L170.218532,95.7499826 L170.218532,73.5739826 L173.322532,73.5739826 L173.322532,82.8219826 L184.170532,82.8219826 L184.170532,73.5739826 Z" id="Church" transform="translate(126.106532, 84.645983) rotate(-10.500000) translate(-126.106532, -84.645983) "></path>
        </g>
    </g>
</svg>