<?xml version="1.0" encoding="UTF-8"?>
<svg width="800px" height="655px" viewBox="0 0 800 655" version="1.1" xmlns="http://www.w3.org/2000/svg" xmlns:xlink="http://www.w3.org/1999/xlink">
    <!-- Generator: Sketch 51.2 (57519) - http://www.bohemiancoding.com/sketch -->
    <title>tallgrasschurch-logo-with-url</title>
    <desc>Created with Sketch.</desc>
    <defs></defs>
    <g id="tallgrasschurch-logo-with-url" stroke="none" stroke-width="1" fill="none" fill-rule="evenodd">
        <g id="url" transform="translate(175.000000, 629.000000)" fill="#305696">
            <path d="M17.136,1.512 L17.136,4.2 L10.16,4.2 L10.16,23.688 L7.056,23.688 L7.056,4.2 L0.08,4.2 L0.08,1.512 L17.136,1.512 Z M43.168,23.688 C42.8053315,22.7279952 42.4640016,21.7840046 42.144,20.856 C41.8239984,19.9279954 41.493335,18.9840048 41.152,18.024 L31.104,18.024 L29.088,23.688 L25.856,23.688 C26.7093376,21.3413216 27.5093296,19.1706766 28.256,17.176 C29.0026704,15.1813234 29.7333298,13.288009 30.448,11.496 C31.1626702,9.70399104 31.8719965,7.99200816 32.576,6.36 C33.2800035,4.72799184 34.0159962,3.112008 34.784,1.512 L37.632,1.512 C38.4000038,3.112008 39.1359965,4.72799184 39.84,6.36 C40.5440035,7.99200816 41.2533298,9.70399104 41.968,11.496 C42.6826702,13.288009 43.4133296,15.1813234 44.16,17.176 C44.9066704,19.1706766 45.7066624,21.3413216 46.56,23.688 L43.168,23.688 Z M40.256,15.464 C39.5733299,13.6079907 38.8960034,11.8106754 38.224,10.072 C37.5519966,8.33332464 36.853337,6.664008 36.128,5.064 C35.3813296,6.664008 34.6720034,8.33332464 34,10.072 C33.3279966,11.8106754 32.6613366,13.6079907 32,15.464 L40.256,15.464 Z M72.912,21 L72.912,23.688 L59.568,23.688 L59.568,1.512 L62.672,1.512 L62.672,21 L72.912,21 Z M99.52,21 L99.52,23.688 L86.176,23.688 L86.176,1.512 L89.28,1.512 L89.28,21 L99.52,21 Z M124.88,12.776 L127.984,12.776 L127.984,23.144 C127.727999,23.2293338 127.360002,23.3253328 126.88,23.432 C126.399998,23.5386672 125.845336,23.6453328 125.216,23.752 C124.586664,23.8586672 123.89867,23.949333 123.152,24.024 C122.40533,24.098667 121.648004,24.136 120.88,24.136 C119.322659,24.136 117.904006,23.8800026 116.624,23.368 C115.343994,22.8559974 114.245338,22.1093382 113.328,21.128 C112.410662,20.1466618 111.701336,18.9413405 111.2,17.512 C110.698664,16.0826595 110.448,14.4400093 110.448,12.584 C110.448,10.7279907 110.730664,9.0800072 111.296,7.64 C111.861336,6.1999928 112.623995,4.98933824 113.584,4.008 C114.544005,3.02666176 115.669327,2.28000256 116.96,1.768 C118.250673,1.25599744 119.631993,1 121.104,1 C122.106672,1 122.997329,1.06399936 123.776,1.192 C124.554671,1.32000064 125.221331,1.46933248 125.776,1.64 C126.330669,1.81066752 126.783998,1.98133248 127.136,2.152 C127.488002,2.32266752 127.727999,2.45066624 127.856,2.536 L126.864,5.128 C126.24533,4.72266464 125.424005,4.386668 124.4,4.12 C123.375995,3.853332 122.330672,3.72 121.264,3.72 C120.133328,3.72 119.104005,3.92266464 118.176,4.328 C117.247995,4.73333536 116.45867,5.31999616 115.808,6.088 C115.15733,6.85600384 114.650668,7.78932784 114.288,8.888 C113.925332,9.98667216 113.744,11.2186598 113.744,12.584 C113.744,13.9066733 113.898665,15.1119946 114.208,16.2 C114.517335,17.2880054 114.986664,18.2213294 115.616,19 C116.245336,19.7786706 117.023995,20.3813312 117.952,20.808 C118.880005,21.2346688 119.973327,21.448 121.232,21.448 C122.128004,21.448 122.890664,21.4000005 123.52,21.304 C124.149336,21.2079995 124.602665,21.1173338 124.88,21.032 L124.88,12.776 Z M153.696,14.408 C154.037335,14.8346688 154.469331,15.3946632 154.992,16.088 C155.514669,16.7813368 156.053331,17.5493291 156.608,18.392 C157.162669,19.2346709 157.711997,20.1146621 158.256,21.032 C158.800003,21.9493379 159.263998,22.8346624 159.648,23.688 L156.256,23.688 C155.829331,22.8773293 155.365336,22.0560042 154.864,21.224 C154.362664,20.3919958 153.856003,19.5973371 153.344,18.84 C152.831997,18.0826629 152.325336,17.3733366 151.824,16.712 C151.322664,16.0506634 150.869335,15.4746691 150.464,14.984 C150.186665,15.0053334 149.904001,15.016 149.616,15.016 L145.952,15.016 L145.952,23.688 L142.848,23.688 L142.848,1.832 C143.722671,1.6186656 144.698661,1.47466704 145.776,1.4 C146.853339,1.32533296 147.839996,1.288 148.736,1.288 C151.850682,1.288 154.223992,1.8746608 155.856,3.048 C157.488008,4.2213392 158.304,5.97065504 158.304,8.296 C158.304,9.76800736 157.914671,11.0266614 157.136,12.072 C156.357329,13.1173386 155.210674,13.8959974 153.696,14.408 Z M148.992,4.008 C147.669327,4.008 146.656004,4.03999968 145.952,4.104 L145.952,12.456 L148.16,12.456 C149.226672,12.456 150.186662,12.4026672 151.04,12.296 C151.893338,12.1893328 152.61333,11.9866682 153.2,11.688 C153.78667,11.3893318 154.239998,10.9680027 154.56,10.424 C154.880002,9.87999728 155.04,9.16000448 155.04,8.264 C155.04,7.43199584 154.880002,6.73866944 154.56,6.184 C154.239998,5.62933056 153.808003,5.1920016 153.264,4.872 C152.719997,4.5519984 152.080004,4.32800064 151.344,4.2 C150.607996,4.07199936 149.824004,4.008 148.992,4.008 Z M188.688,23.688 C188.325332,22.7279952 187.984002,21.7840046 187.664,20.856 C187.343998,19.9279954 187.013335,18.9840048 186.672,18.024 L176.624,18.024 L174.608,23.688 L171.376,23.688 C172.229338,21.3413216 173.02933,19.1706766 173.776,17.176 C174.52267,15.1813234 175.25333,13.288009 175.968,11.496 C176.68267,9.70399104 177.391996,7.99200816 178.096,6.36 C178.800004,4.72799184 179.535996,3.112008 180.304,1.512 L183.152,1.512 C183.920004,3.112008 184.655996,4.72799184 185.36,6.36 C186.064004,7.99200816 186.77333,9.70399104 187.488,11.496 C188.20267,13.288009 188.93333,15.1813234 189.68,17.176 C190.42667,19.1706766 191.226662,21.3413216 192.08,23.688 L188.688,23.688 Z M185.776,15.464 C185.09333,13.6079907 184.416003,11.8106754 183.744,10.072 C183.071997,8.33332464 182.373337,6.664008 181.648,5.064 C180.90133,6.664008 180.192003,8.33332464 179.52,10.072 C178.847997,11.8106754 178.181337,13.6079907 177.52,15.464 L185.776,15.464 Z M210.752,21.48 C213.994683,21.48 215.616,20.3706778 215.616,18.152 C215.616,17.4693299 215.472001,16.8880024 215.184,16.408 C214.895999,15.9279976 214.506669,15.5120018 214.016,15.16 C213.525331,14.8079982 212.965336,14.5040013 212.336,14.248 C211.706664,13.9919987 211.040004,13.7360013 210.336,13.48 C209.525329,13.2026653 208.757337,12.8880018 208.032,12.536 C207.306663,12.1839982 206.677336,11.7680024 206.144,11.288 C205.610664,10.8079976 205.189335,10.2373366 204.88,9.576 C204.570665,8.91466336 204.416,8.11467136 204.416,7.176 C204.416,5.23465696 205.077327,3.72000544 206.4,2.632 C207.722673,1.54399456 209.546655,1 211.872,1 C213.216007,1 214.437328,1.14399856 215.536,1.432 C216.634672,1.72000144 217.439997,2.03466496 217.952,2.376 L216.96,4.904 C216.511998,4.62666528 215.845338,4.354668 214.96,4.088 C214.074662,3.821332 213.045339,3.688 211.872,3.688 C211.274664,3.688 210.720003,3.75199936 210.208,3.88 C209.695997,4.00800064 209.248002,4.19999872 208.864,4.456 C208.479998,4.71200128 208.176001,5.03733136 207.952,5.432 C207.727999,5.82666864 207.616,6.290664 207.616,6.824 C207.616,7.42133632 207.733332,7.92266464 207.968,8.328 C208.202668,8.73333536 208.533331,9.09066512 208.96,9.4 C209.386669,9.70933488 209.882664,9.99199872 210.448,10.248 C211.013336,10.5040013 211.63733,10.7599987 212.32,11.016 C213.280005,11.4000019 214.159996,11.7839981 214.96,12.168 C215.760004,12.5520019 216.45333,13.010664 217.04,13.544 C217.62667,14.077336 218.079998,14.7119963 218.4,15.448 C218.720002,16.1840037 218.88,17.0746614 218.88,18.12 C218.88,20.061343 218.170674,21.5546614 216.752,22.6 C215.333326,23.6453386 213.333346,24.168 210.752,24.168 C209.877329,24.168 209.072004,24.1093339 208.336,23.992 C207.599996,23.8746661 206.944003,23.7360008 206.368,23.576 C205.791997,23.4159992 205.296002,23.2453342 204.88,23.064 C204.463998,22.8826658 204.138668,22.7280006 203.904,22.6 L204.832,20.04 C205.322669,20.3173347 206.069328,20.626665 207.072,20.968 C208.074672,21.309335 209.301326,21.48 210.752,21.48 Z M237.776,21.48 C241.018683,21.48 242.64,20.3706778 242.64,18.152 C242.64,17.4693299 242.496001,16.8880024 242.208,16.408 C241.919999,15.9279976 241.530669,15.5120018 241.04,15.16 C240.549331,14.8079982 239.989336,14.5040013 239.36,14.248 C238.730664,13.9919987 238.064004,13.7360013 237.36,13.48 C236.549329,13.2026653 235.781337,12.8880018 235.056,12.536 C234.330663,12.1839982 233.701336,11.7680024 233.168,11.288 C232.634664,10.8079976 232.213335,10.2373366 231.904,9.576 C231.594665,8.91466336 231.44,8.11467136 231.44,7.176 C231.44,5.23465696 232.101327,3.72000544 233.424,2.632 C234.746673,1.54399456 236.570655,1 238.896,1 C240.240007,1 241.461328,1.14399856 242.56,1.432 C243.658672,1.72000144 244.463997,2.03466496 244.976,2.376 L243.984,4.904 C243.535998,4.62666528 242.869338,4.354668 241.984,4.088 C241.098662,3.821332 240.069339,3.688 238.896,3.688 C238.298664,3.688 237.744003,3.75199936 237.232,3.88 C236.719997,4.00800064 236.272002,4.19999872 235.888,4.456 C235.503998,4.71200128 235.200001,5.03733136 234.976,5.432 C234.751999,5.82666864 234.64,6.290664 234.64,6.824 C234.64,7.42133632 234.757332,7.92266464 234.992,8.328 C235.226668,8.73333536 235.557331,9.09066512 235.984,9.4 C236.410669,9.70933488 236.906664,9.99199872 237.472,10.248 C238.037336,10.5040013 238.66133,10.7599987 239.344,11.016 C240.304005,11.4000019 241.183996,11.7839981 241.984,12.168 C242.784004,12.5520019 243.47733,13.010664 244.064,13.544 C244.65067,14.077336 245.103998,14.7119963 245.424,15.448 C245.744002,16.1840037 245.904,17.0746614 245.904,18.12 C245.904,20.061343 245.194674,21.5546614 243.776,22.6 C242.357326,23.6453386 240.357346,24.168 237.776,24.168 C236.901329,24.168 236.096004,24.1093339 235.36,23.992 C234.623996,23.8746661 233.968003,23.7360008 233.392,23.576 C232.815997,23.4159992 232.320002,23.2453342 231.904,23.064 C231.487998,22.8826658 231.162668,22.7280006 230.928,22.6 L231.856,20.04 C232.346669,20.3173347 233.093328,20.626665 234.096,20.968 C235.098672,21.309335 236.325326,21.48 237.776,21.48 Z M262.976,21.96 C262.976,22.5360029 262.784002,23.0373312 262.4,23.464 C262.015998,23.8906688 261.493337,24.104 260.832,24.104 C260.170663,24.104 259.648002,23.8906688 259.264,23.464 C258.879998,23.0373312 258.688,22.5360029 258.688,21.96 C258.688,21.3839971 258.879998,20.8826688 259.264,20.456 C259.648002,20.0293312 260.170663,19.816 260.832,19.816 C261.493337,19.816 262.015998,20.0293312 262.4,20.456 C262.784002,20.8826688 262.976,21.3839971 262.976,21.96 Z M286.128,24.168 C284.570659,24.168 283.152006,23.9120026 281.872,23.4 C280.591994,22.8879974 279.493338,22.1413382 278.576,21.16 C277.658662,20.1786618 276.949336,18.9680072 276.448,17.528 C275.946664,16.0879928 275.696,14.4400093 275.696,12.584 C275.696,10.7279907 275.978664,9.0800072 276.544,7.64 C277.109336,6.1999928 277.871995,4.98933824 278.832,4.008 C279.792005,3.02666176 280.911994,2.28000256 282.192,1.768 C283.472006,1.25599744 284.837326,1 286.288,1 C287.205338,1 288.031996,1.06399936 288.768,1.192 C289.504004,1.32000064 290.143997,1.46933248 290.688,1.64 C291.232003,1.81066752 291.674665,1.98133248 292.016,2.152 C292.357335,2.32266752 292.591999,2.45066624 292.72,2.536 L291.824,5.096 C291.631999,4.96799936 291.354668,4.82933408 290.992,4.68 C290.629332,4.53066592 290.218669,4.38133408 289.76,4.232 C289.301331,4.08266592 288.800003,3.96000048 288.256,3.864 C287.711997,3.76799952 287.162669,3.72 286.608,3.72 C285.434661,3.72 284.378671,3.92266464 283.44,4.328 C282.501329,4.73333536 281.701337,5.31999616 281.04,6.088 C280.378663,6.85600384 279.872002,7.78932784 279.52,8.888 C279.167998,9.98667216 278.992,11.2186598 278.992,12.584 C278.992,13.9066733 279.146665,15.1119946 279.456,16.2 C279.765335,17.2880054 280.22933,18.2213294 280.848,19 C281.46667,19.7786706 282.239995,20.3813312 283.168,20.808 C284.096005,21.2346688 285.17866,21.448 286.416,21.448 C287.84534,21.448 289.029329,21.2986682 289.968,21 C290.906671,20.7013318 291.610664,20.4346678 292.08,20.2 L292.88,22.76 C292.730666,22.8666672 292.464002,22.9999992 292.08,23.16 C291.695998,23.3200008 291.216003,23.4746659 290.64,23.624 C290.063997,23.7733341 289.392004,23.9013328 288.624,24.008 C287.855996,24.1146672 287.024004,24.168 286.128,24.168 Z M320.384,1.512 L323.488,1.512 L323.488,23.688 L320.384,23.688 L320.384,13.448 L309.536,13.448 L309.536,23.688 L306.432,23.688 L306.432,1.512 L309.536,1.512 L309.536,10.76 L320.384,10.76 L320.384,1.512 Z M347.248,24.168 C345.797326,24.168 344.538672,23.9440022 343.472,23.496 C342.405328,23.0479978 341.53067,22.4346706 340.848,21.656 C340.16533,20.8773294 339.658668,19.954672 339.328,18.888 C338.997332,17.821328 338.832,16.6693395 338.832,15.432 L338.832,1.512 L341.936,1.512 L341.936,15.08 C341.936,17.2986778 342.426662,18.9093283 343.408,19.912 C344.389338,20.9146717 345.669325,21.416 347.248,21.416 C348.037337,21.416 348.75733,21.2933346 349.408,21.048 C350.05867,20.8026654 350.618664,20.4240026 351.088,19.912 C351.557336,19.3999974 351.919999,18.744004 352.176,17.944 C352.432001,17.143996 352.56,16.1893389 352.56,15.08 L352.56,1.512 L355.664,1.512 L355.664,15.432 C355.664,16.6693395 355.498668,17.821328 355.168,18.888 C354.837332,19.954672 354.325337,20.8773294 353.632,21.656 C352.938663,22.4346706 352.064005,23.0479978 351.008,23.496 C349.951995,23.9440022 348.698674,24.168 347.248,24.168 Z M381.856,14.408 C382.197335,14.8346688 382.629331,15.3946632 383.152,16.088 C383.674669,16.7813368 384.213331,17.5493291 384.768,18.392 C385.322669,19.2346709 385.871997,20.1146621 386.416,21.032 C386.960003,21.9493379 387.423998,22.8346624 387.808,23.688 L384.416,23.688 C383.989331,22.8773293 383.525336,22.0560042 383.024,21.224 C382.522664,20.3919958 382.016003,19.5973371 381.504,18.84 C380.991997,18.0826629 380.485336,17.3733366 379.984,16.712 C379.482664,16.0506634 379.029335,15.4746691 378.624,14.984 C378.346665,15.0053334 378.064001,15.016 377.776,15.016 L374.112,15.016 L374.112,23.688 L371.008,23.688 L371.008,1.832 C371.882671,1.6186656 372.858661,1.47466704 373.936,1.4 C375.013339,1.32533296 375.999996,1.288 376.896,1.288 C380.010682,1.288 382.383992,1.8746608 384.016,3.048 C385.648008,4.2213392 386.464,5.97065504 386.464,8.296 C386.464,9.76800736 386.074671,11.0266614 385.296,12.072 C384.517329,13.1173386 383.370674,13.8959974 381.856,14.408 Z M377.152,4.008 C375.829327,4.008 374.816004,4.03999968 374.112,4.104 L374.112,12.456 L376.32,12.456 C377.386672,12.456 378.346662,12.4026672 379.2,12.296 C380.053338,12.1893328 380.77333,11.9866682 381.36,11.688 C381.94667,11.3893318 382.399998,10.9680027 382.72,10.424 C383.040002,9.87999728 383.2,9.16000448 383.2,8.264 C383.2,7.43199584 383.040002,6.73866944 382.72,6.184 C382.399998,5.62933056 381.968003,5.1920016 381.424,4.872 C380.879997,4.5519984 380.240004,4.32800064 379.504,4.2 C378.767996,4.07199936 377.984004,4.008 377.152,4.008 Z M410.32,24.168 C408.762659,24.168 407.344006,23.9120026 406.064,23.4 C404.783994,22.8879974 403.685338,22.1413382 402.768,21.16 C401.850662,20.1786618 401.141336,18.9680072 400.64,17.528 C400.138664,16.0879928 399.888,14.4400093 399.888,12.584 C399.888,10.7279907 400.170664,9.0800072 400.736,7.64 C401.301336,6.1999928 402.063995,4.98933824 403.024,4.008 C403.984005,3.02666176 405.103994,2.28000256 406.384,1.768 C407.664006,1.25599744 409.029326,1 410.48,1 C411.397338,1 412.223996,1.06399936 412.96,1.192 C413.696004,1.32000064 414.335997,1.46933248 414.88,1.64 C415.424003,1.81066752 415.866665,1.98133248 416.208,2.152 C416.549335,2.32266752 416.783999,2.45066624 416.912,2.536 L416.016,5.096 C415.823999,4.96799936 415.546668,4.82933408 415.184,4.68 C414.821332,4.53066592 414.410669,4.38133408 413.952,4.232 C413.493331,4.08266592 412.992003,3.96000048 412.448,3.864 C411.903997,3.76799952 411.354669,3.72 410.8,3.72 C409.626661,3.72 408.570671,3.92266464 407.632,4.328 C406.693329,4.73333536 405.893337,5.31999616 405.232,6.088 C404.570663,6.85600384 404.064002,7.78932784 403.712,8.888 C403.359998,9.98667216 403.184,11.2186598 403.184,12.584 C403.184,13.9066733 403.338665,15.1119946 403.648,16.2 C403.957335,17.2880054 404.42133,18.2213294 405.04,19 C405.65867,19.7786706 406.431995,20.3813312 407.36,20.808 C408.288005,21.2346688 409.37066,21.448 410.608,21.448 C412.03734,21.448 413.221329,21.2986682 414.16,21 C415.098671,20.7013318 415.802664,20.4346678 416.272,20.2 L417.072,22.76 C416.922666,22.8666672 416.656002,22.9999992 416.272,23.16 C415.887998,23.3200008 415.408003,23.4746659 414.832,23.624 C414.255997,23.7733341 413.584004,23.9013328 412.816,24.008 C412.047996,24.1146672 411.216004,24.168 410.32,24.168 Z M444.576,1.512 L447.68,1.512 L447.68,23.688 L444.576,23.688 L444.576,13.448 L433.728,13.448 L433.728,23.688 L430.624,23.688 L430.624,1.512 L433.728,1.512 L433.728,10.76 L444.576,10.76 L444.576,1.512 Z" id="tallgrass.church"></path>
        </g>
        <g id="text" transform="translate(0.000000, 439.000000)" fill="#305696">
            <path d="M18.736,160.81 C16.1079869,160.81 13.7140108,160.378004 11.554,159.514 C9.3939892,158.649996 7.54000774,157.390008 5.992,155.734 C4.44399226,154.077992 3.24700423,152.035012 2.401,149.605 C1.55499577,147.174988 1.132,144.394016 1.132,141.262 C1.132,138.129984 1.60899523,135.349012 2.563,132.919 C3.51700477,130.488988 4.8039919,128.446008 6.424,126.79 C8.0440081,125.133992 9.9339892,123.874004 12.094,123.01 C14.2540108,122.145996 16.5579878,121.714 19.006,121.714 C20.5540077,121.714 21.9489938,121.821999 23.191,122.038 C24.4330062,122.254001 25.5129954,122.505999 26.431,122.794 C27.3490046,123.082001 28.0959971,123.369999 28.672,123.658 C29.2480029,123.946001 29.6439989,124.161999 29.86,124.306 L28.348,128.626 C28.0239984,128.409999 27.5560031,128.176001 26.944,127.924 C26.3319969,127.671999 25.6390039,127.420001 24.865,127.168 C24.0909961,126.915999 23.2450046,126.709001 22.327,126.547 C21.4089954,126.384999 20.4820047,126.304 19.546,126.304 C17.5659901,126.304 15.7840079,126.645997 14.2,127.33 C12.6159921,128.014003 11.2660056,129.003994 10.15,130.3 C9.03399442,131.596006 8.17900297,133.170991 7.585,135.025 C6.99099703,136.879009 6.694,138.957988 6.694,141.262 C6.694,143.494011 6.95499739,145.527991 7.477,147.364 C7.99900261,149.200009 8.78199478,150.774993 9.826,152.089 C10.8700052,153.403007 12.1749922,154.419996 13.741,155.14 C15.3070078,155.860004 17.1339896,156.22 19.222,156.22 C21.6340121,156.22 23.6319921,155.968003 25.216,155.464 C26.8000079,154.959997 27.987996,154.510002 28.78,154.114 L30.13,158.434 C29.8779987,158.614001 29.4280032,158.838999 28.78,159.109 C28.1319968,159.379001 27.3220049,159.639999 26.35,159.892 C25.3779951,160.144001 24.2440065,160.359999 22.948,160.54 C21.6519935,160.720001 20.2480076,160.81 18.736,160.81 Z M50.6320004,141.262 C50.6320004,138.057984 51.1089956,135.232012 52.0630004,132.784 C53.0170052,130.335988 54.3129922,128.293008 55.9510004,126.655 C57.5890086,125.016992 59.4969895,123.784004 61.6750004,122.956 C63.8530113,122.127996 66.1659881,121.714 68.6140004,121.714 C71.0260124,121.714 73.3029897,122.127996 75.4450004,122.956 C77.5870111,123.784004 79.4679923,125.016992 81.0880004,126.655 C82.7080085,128.293008 83.9949956,130.335988 84.9490004,132.784 C85.9030052,135.232012 86.3800004,138.057984 86.3800004,141.262 C86.3800004,144.466016 85.9030052,147.291988 84.9490004,149.74 C83.9949956,152.188012 82.7080085,154.230992 81.0880004,155.869 C79.4679923,157.507008 77.5870111,158.739996 75.4450004,159.568 C73.3029897,160.396004 71.0260124,160.81 68.6140004,160.81 C66.1659881,160.81 63.8530113,160.396004 61.6750004,159.568 C59.4969895,158.739996 57.5890086,157.507008 55.9510004,155.869 C54.3129922,154.230992 53.0170052,152.188012 52.0630004,149.74 C51.1089956,147.291988 50.6320004,144.466016 50.6320004,141.262 Z M56.1400004,141.262 C56.1400004,143.530011 56.4279975,145.590991 57.0040004,147.445 C57.5800033,149.299009 58.3989951,150.873994 59.4610004,152.17 C60.5230057,153.466006 61.8189927,154.464996 63.3490004,155.167 C64.879008,155.869004 66.5979908,156.22 68.5060004,156.22 C70.4140099,156.22 72.1239928,155.869004 73.6360004,155.167 C75.1480079,154.464996 76.4349951,153.466006 77.4970004,152.17 C78.5590057,150.873994 79.3779975,149.299009 79.9540004,147.445 C80.5300033,145.590991 80.8180004,143.530011 80.8180004,141.262 C80.8180004,138.993989 80.5300033,136.933009 79.9540004,135.079 C79.3779975,133.224991 78.5590057,131.650006 77.4970004,130.354 C76.4349951,129.057994 75.1480079,128.059004 73.6360004,127.357 C72.1239928,126.654996 70.4140099,126.304 68.5060004,126.304 C66.5979908,126.304 64.879008,126.654996 63.3490004,127.357 C61.8189927,128.059004 60.5230057,129.057994 59.4610004,130.354 C58.3989951,131.650006 57.5800033,133.224991 57.0040004,135.079 C56.4279975,136.933009 56.1400004,138.993989 56.1400004,141.262 Z M128.050001,154.816 C127.689999,153.951996 127.213004,152.854007 126.619001,151.522 C126.024998,150.189993 125.386004,148.750008 124.702001,147.202 C124.017997,145.653992 123.289005,144.061008 122.515001,142.423 C121.740997,140.784992 121.012004,139.237007 120.328001,137.779 C119.643997,136.320993 119.005004,135.016006 118.411001,133.864 C117.816998,132.711994 117.340003,131.830003 116.980001,131.218 C116.583999,135.466021 116.260002,140.064975 116.008001,145.015 C115.756,149.965025 115.540002,154.959975 115.360001,160 L110.230001,160 C110.374001,156.759984 110.536,153.493016 110.716001,150.199 C110.896002,146.904984 111.103,143.665016 111.337001,140.479 C111.571002,137.292984 111.822999,134.188015 112.093001,131.164 C112.363002,128.139985 112.659999,125.278013 112.984001,122.578 L117.574001,122.578 C118.546006,124.162008 119.589995,126.033989 120.706001,128.194 C121.822006,130.354011 122.937995,132.612988 124.054001,134.971 C125.170006,137.329012 126.249996,139.686988 127.294001,142.045 C128.338006,144.403012 129.291996,146.55399 130.156001,148.498 C131.020005,146.55399 131.973996,144.403012 133.018001,142.045 C134.062006,139.686988 135.141995,137.329012 136.258001,134.971 C137.374006,132.612988 138.489995,130.354011 139.606001,128.194 C140.722006,126.033989 141.765996,124.162008 142.738001,122.578 L147.328001,122.578 C148.552007,134.63806 149.469998,147.111936 150.082001,160 L144.952001,160 C144.772,154.959975 144.556002,149.965025 144.304001,145.015 C144.052,140.064975 143.728003,135.466021 143.332001,131.218 C142.971999,131.830003 142.495004,132.711994 141.901001,133.864 C141.306998,135.016006 140.668004,136.320993 139.984001,137.779 C139.299997,139.237007 138.571005,140.784992 137.797001,142.423 C137.022997,144.061008 136.294004,145.653992 135.610001,147.202 C134.925997,148.750008 134.287004,150.189993 133.693001,151.522 C133.098998,152.854007 132.622003,153.951996 132.262001,154.816 L128.050001,154.816 Z M192.184001,154.816 C191.823999,153.951996 191.347004,152.854007 190.753001,151.522 C190.158998,150.189993 189.520005,148.750008 188.836001,147.202 C188.151998,145.653992 187.423005,144.061008 186.649001,142.423 C185.874997,140.784992 185.146005,139.237007 184.462001,137.779 C183.777998,136.320993 183.139004,135.016006 182.545001,133.864 C181.950998,132.711994 181.474003,131.830003 181.114001,131.218 C180.717999,135.466021 180.394002,140.064975 180.142001,145.015 C179.89,149.965025 179.674002,154.959975 179.494001,160 L174.364001,160 C174.508002,156.759984 174.67,153.493016 174.850001,150.199 C175.030002,146.904984 175.237,143.665016 175.471001,140.479 C175.705002,137.292984 175.957,134.188015 176.227001,131.164 C176.497002,128.139985 176.794,125.278013 177.118001,122.578 L181.708001,122.578 C182.680006,124.162008 183.723996,126.033989 184.840001,128.194 C185.956007,130.354011 187.071996,132.612988 188.188001,134.971 C189.304007,137.329012 190.383996,139.686988 191.428001,142.045 C192.472006,144.403012 193.425997,146.55399 194.290001,148.498 C195.154005,146.55399 196.107996,144.403012 197.152001,142.045 C198.196006,139.686988 199.275996,137.329012 200.392001,134.971 C201.508007,132.612988 202.623996,130.354011 203.740001,128.194 C204.856007,126.033989 205.899996,124.162008 206.872001,122.578 L211.462001,122.578 C212.686007,134.63806 213.603998,147.111936 214.216001,160 L209.086001,160 C208.906,154.959975 208.690002,149.965025 208.438001,145.015 C208.186,140.064975 207.862003,135.466021 207.466001,131.218 C207.105999,131.830003 206.629004,132.711994 206.035001,133.864 C205.440998,135.016006 204.802005,136.320993 204.118001,137.779 C203.433998,139.237007 202.705005,140.784992 201.931001,142.423 C201.156997,144.061008 200.428005,145.653992 199.744001,147.202 C199.059998,148.750008 198.421004,150.189993 197.827001,151.522 C197.232998,152.854007 196.756003,153.951996 196.396001,154.816 L192.184001,154.816 Z M253.456002,160.81 C251.007989,160.81 248.884011,160.432004 247.084002,159.676 C245.283993,158.919996 243.808007,157.885007 242.656002,156.571 C241.503996,155.256993 240.649004,153.700009 240.091002,151.9 C239.532999,150.099991 239.254002,148.15601 239.254002,146.068 L239.254002,122.578 L244.492002,122.578 L244.492002,145.474 C244.492002,149.218019 245.319993,151.935992 246.976002,153.628 C248.63201,155.320008 250.791988,156.166 253.456002,156.166 C254.788008,156.166 256.002996,155.959002 257.101002,155.545 C258.199007,155.130998 259.143998,154.492004 259.936002,153.628 C260.728005,152.763996 261.339999,151.657007 261.772002,150.307 C262.204004,148.956993 262.420002,147.346009 262.420002,145.474 L262.420002,122.578 L267.658002,122.578 L267.658002,146.068 C267.658002,148.15601 267.379004,150.099991 266.821002,151.9 C266.262999,153.700009 265.399007,155.256993 264.229002,156.571 C263.058996,157.885007 261.58301,158.919996 259.801002,159.676 C258.018993,160.432004 255.904014,160.81 253.456002,160.81 Z M319.426002,160 C318.633998,158.667993 317.725007,157.174008 316.699002,155.518 C315.672997,153.861992 314.566008,152.143009 313.378002,150.361 C312.189996,148.578991 310.957008,146.770009 309.679002,144.934 C308.400996,143.097991 307.132008,141.325009 305.872002,139.615 C304.611996,137.904991 303.388008,136.294008 302.200002,134.782 C301.011996,133.269992 299.914007,131.938006 298.906002,130.786 L298.906002,160 L293.776002,160 L293.776002,122.578 L297.934002,122.578 C299.62601,124.378009 301.434992,126.474988 303.361002,128.869 C305.287012,131.263012 307.194992,133.728987 309.085002,136.267 C310.975011,138.805013 312.756994,141.297988 314.431002,143.746 C316.10501,146.194012 317.517996,148.37199 318.670002,150.28 L318.670002,122.578 L323.800002,122.578 L323.800002,160 L319.426002,160 Z M350.188002,122.578 L355.426002,122.578 L355.426002,160 L350.188002,160 L350.188002,122.578 Z M406.816003,122.578 L406.816003,127.114 L395.044003,127.114 L395.044003,160 L389.806003,160 L389.806003,127.114 L378.034003,127.114 L378.034003,122.578 L406.816003,122.578 Z M439.900003,160 L439.900003,144.988 C437.415991,141.135981 435.076014,137.338019 432.880003,133.594 C430.683992,129.849981 428.614013,126.178018 426.670003,122.578 L432.826003,122.578 C434.19401,125.530015 435.723995,128.526985 437.416003,131.569 C439.108012,134.611015 440.853994,137.535986 442.654003,140.344 C444.418012,137.535986 446.145995,134.611015 447.838003,131.569 C449.530012,128.526985 451.077996,125.530015 452.482003,122.578 L458.314003,122.578 C456.369993,126.178018 454.300014,129.840981 452.104003,133.567 C449.907992,137.293019 447.586015,141.063981 445.138003,144.88 L445.138003,160 L439.900003,160 Z M526.048004,160.81 C523.419991,160.81 521.026015,160.378004 518.866004,159.514 C516.705993,158.649996 514.852012,157.390008 513.304004,155.734 C511.755996,154.077992 510.559008,152.035012 509.713004,149.605 C508.867,147.174988 508.444004,144.394016 508.444004,141.262 C508.444004,138.129984 508.920999,135.349012 509.875004,132.919 C510.829009,130.488988 512.115996,128.446008 513.736004,126.79 C515.356012,125.133992 517.245993,123.874004 519.406004,123.01 C521.566015,122.145996 523.869992,121.714 526.318004,121.714 C527.866012,121.714 529.260998,121.821999 530.503004,122.038 C531.74501,122.254001 532.824999,122.505999 533.743004,122.794 C534.661008,123.082001 535.408001,123.369999 535.984004,123.658 C536.560007,123.946001 536.956003,124.161999 537.172004,124.306 L535.660004,128.626 C535.336002,128.409999 534.868007,128.176001 534.256004,127.924 C533.644001,127.671999 532.951008,127.420001 532.177004,127.168 C531.403,126.915999 530.557008,126.709001 529.639004,126.547 C528.720999,126.384999 527.794008,126.304 526.858004,126.304 C524.877994,126.304 523.096012,126.645997 521.512004,127.33 C519.927996,128.014003 518.578009,129.003994 517.462004,130.3 C516.345998,131.596006 515.491007,133.170991 514.897004,135.025 C514.303001,136.879009 514.006004,138.957988 514.006004,141.262 C514.006004,143.494011 514.267001,145.527991 514.789004,147.364 C515.311006,149.200009 516.093999,150.774993 517.138004,152.089 C518.182009,153.403007 519.486996,154.419996 521.053004,155.14 C522.619012,155.860004 524.445993,156.22 526.534004,156.22 C528.946016,156.22 530.943996,155.968003 532.528004,155.464 C534.112012,154.959997 535.3,154.510002 536.092004,154.114 L537.442004,158.434 C537.190003,158.614001 536.740007,158.838999 536.092004,159.109 C535.444001,159.379001 534.634009,159.639999 533.662004,159.892 C532.689999,160.144001 531.55601,160.359999 530.260004,160.54 C528.963997,160.720001 527.560011,160.81 526.048004,160.81 Z M584.080004,122.578 L589.318004,122.578 L589.318004,160 L584.080004,160 L584.080004,142.72 L565.774004,142.72 L565.774004,160 L560.536004,160 L560.536004,122.578 L565.774004,122.578 L565.774004,138.184 L584.080004,138.184 L584.080004,122.578 Z M629.638005,160.81 C627.189992,160.81 625.066014,160.432004 623.266005,159.676 C621.465996,158.919996 619.99001,157.885007 618.838005,156.571 C617.685999,155.256993 616.831007,153.700009 616.273005,151.9 C615.715002,150.099991 615.436005,148.15601 615.436005,146.068 L615.436005,122.578 L620.674005,122.578 L620.674005,145.474 C620.674005,149.218019 621.501996,151.935992 623.158005,153.628 C624.814013,155.320008 626.973991,156.166 629.638005,156.166 C630.970011,156.166 632.184999,155.959002 633.283005,155.545 C634.38101,155.130998 635.326001,154.492004 636.118005,153.628 C636.910009,152.763996 637.522002,151.657007 637.954005,150.307 C638.386007,148.956993 638.602005,147.346009 638.602005,145.474 L638.602005,122.578 L643.840005,122.578 L643.840005,146.068 C643.840005,148.15601 643.561007,150.099991 643.003005,151.9 C642.445002,153.700009 641.58101,155.256993 640.411005,156.571 C639.240999,157.885007 637.765013,158.919996 635.983005,159.676 C634.200996,160.432004 632.086017,160.81 629.638005,160.81 Z M688.264005,144.34 C688.840008,145.060004 689.569001,146.004994 690.451005,147.175 C691.333009,148.345006 692.242,149.640993 693.178005,151.063 C694.11401,152.485007 695.041,153.969992 695.959005,155.518 C696.87701,157.066008 697.660002,158.559993 698.308005,160 L692.584005,160 C691.864001,158.631993 691.081009,157.246007 690.235005,155.842 C689.389001,154.437993 688.534009,153.097006 687.670005,151.819 C686.806001,150.540994 685.951009,149.344006 685.105005,148.228 C684.259001,147.111994 683.494008,146.140004 682.810005,145.312 C682.342003,145.348 681.865007,145.366 681.379005,145.366 L675.196005,145.366 L675.196005,160 L669.958005,160 L669.958005,123.118 C671.434012,122.757998 673.080996,122.515001 674.899005,122.389 C676.717014,122.262999 678.381997,122.2 679.894005,122.2 C685.150031,122.2 689.154991,123.18999 691.909005,125.17 C694.663019,127.15001 696.040005,130.10198 696.040005,134.026 C696.040005,136.510012 695.383012,138.633991 694.069005,140.398 C692.754998,142.162009 690.820018,143.475996 688.264005,144.34 Z M680.326005,126.79 C678.093994,126.79 676.384011,126.843999 675.196005,126.952 L675.196005,141.046 L678.922005,141.046 C680.722014,141.046 682.341998,140.956001 683.782005,140.776 C685.222012,140.595999 686.437,140.254003 687.427005,139.75 C688.41701,139.245997 689.182002,138.535005 689.722005,137.617 C690.262008,136.698995 690.532005,135.484008 690.532005,133.972 C690.532005,132.567993 690.262008,131.398005 689.722005,130.462 C689.182002,129.525995 688.45301,128.788003 687.535005,128.248 C686.617,127.707997 685.537011,127.330001 684.295005,127.114 C683.052999,126.897999 681.730012,126.79 680.326005,126.79 Z M736.522005,160.81 C733.893992,160.81 731.500016,160.378004 729.340005,159.514 C727.179995,158.649996 725.326013,157.390008 723.778005,155.734 C722.229998,154.077992 721.03301,152.035012 720.187005,149.605 C719.341001,147.174988 718.918005,144.394016 718.918005,141.262 C718.918005,138.129984 719.395001,135.349012 720.349005,132.919 C721.30301,130.488988 722.589997,128.446008 724.210005,126.79 C725.830013,125.133992 727.719995,123.874004 729.880005,123.01 C732.040016,122.145996 734.343993,121.714 736.792005,121.714 C738.340013,121.714 739.734999,121.821999 740.977005,122.038 C742.219012,122.254001 743.299001,122.505999 744.217005,122.794 C745.13501,123.082001 745.882002,123.369999 746.458005,123.658 C747.034008,123.946001 747.430004,124.161999 747.646005,124.306 L746.134005,128.626 C745.810004,128.409999 745.342008,128.176001 744.730005,127.924 C744.118002,127.671999 743.425009,127.420001 742.651005,127.168 C741.877001,126.915999 741.03101,126.709001 740.113005,126.547 C739.195001,126.384999 738.26801,126.304 737.332005,126.304 C735.351995,126.304 733.570013,126.645997 731.986005,127.33 C730.401997,128.014003 729.052011,129.003994 727.936005,130.3 C726.82,131.596006 725.965008,133.170991 725.371005,135.025 C724.777002,136.879009 724.480005,138.957988 724.480005,141.262 C724.480005,143.494011 724.741003,145.527991 725.263005,147.364 C725.785008,149.200009 726.568,150.774993 727.612005,152.089 C728.656011,153.403007 729.960998,154.419996 731.527005,155.14 C733.093013,155.860004 734.919995,156.22 737.008005,156.22 C739.420017,156.22 741.417997,155.968003 743.002005,155.464 C744.586013,154.959997 745.774001,154.510002 746.566005,154.114 L747.916005,158.434 C747.664004,158.614001 747.214009,158.838999 746.566005,159.109 C745.918002,159.379001 745.10801,159.639999 744.136005,159.892 C743.164,160.144001 742.030012,160.359999 740.734005,160.54 C739.437999,160.720001 738.034013,160.81 736.522005,160.81 Z M794.554006,122.578 L799.792006,122.578 L799.792006,160 L794.554006,160 L794.554006,142.72 L776.248006,142.72 L776.248006,160 L771.010006,160 L771.010006,122.578 L776.248006,122.578 L776.248006,138.184 L794.554006,138.184 L794.554006,122.578 Z" id="community-church"></path>
            <path d="M81.16,2.98 L81.16,21.6 L51.9,21.6 L51.9,100 L30.06,100 L30.06,21.6 L0.8,21.6 L0.8,2.98 L81.16,2.98 Z M150.44,100 C149.413328,96.6399832 148.270006,93.1866844 147.01,89.64 C145.749994,86.0933156 144.513339,82.5466844 143.3,79 L105.5,79 C104.286661,82.5466844 103.050006,86.0933156 101.79,89.64 C100.529994,93.1866844 99.3866718,96.6399832 98.36,100 L75.68,100 C79.3200182,89.5466144 82.773317,79.886711 86.04,71.02 C89.306683,62.153289 92.5033177,53.8000392 95.63,45.96 C98.7566823,38.1199608 101.836651,30.6767019 104.87,23.63 C107.903348,16.5832981 111.053317,9.7000336 114.32,2.98 L135.18,2.98 C138.353349,9.7000336 141.479985,16.5832981 144.56,23.63 C147.640015,30.6767019 150.743318,38.1199608 153.87,45.96 C156.996682,53.8000392 160.193317,62.153289 163.46,71.02 C166.726683,79.886711 170.179982,89.5466144 173.82,100 L150.44,100 Z M124.26,24.96 C123.793331,26.360007 123.093338,28.2733212 122.16,30.7 C121.226662,33.1266788 120.153339,35.9266508 118.94,39.1 C117.726661,42.2733492 116.396674,45.7733142 114.95,49.6 C113.503326,53.4266858 112.033341,57.439979 110.54,61.64 L138.12,61.64 C136.626659,57.439979 135.180007,53.4266858 133.78,49.6 C132.379993,45.7733142 131.050006,42.2733492 129.79,39.1 C128.529994,35.9266508 127.433338,33.1266788 126.5,30.7 C125.566662,28.2733212 124.820003,26.360007 124.26,24.96 Z M253.04,81.24 L253.04,100 L188.22,100 L188.22,2.98 L210.06,2.98 L210.06,81.24 L253.04,81.24 Z M333.66,81.24 L333.66,100 L268.84,100 L268.84,2.98 L290.68,2.98 L290.68,81.24 L333.66,81.24 Z M393.98,19.78 C383.806616,19.78 376.456689,22.6033051 371.93,28.25 C367.403311,33.8966949 365.14,41.619951 365.14,51.42 C365.14,56.1800238 365.699994,60.4966473 366.82,64.37 C367.940005,68.2433527 369.619989,71.579986 371.86,74.38 C374.100011,77.180014 376.899983,79.3499923 380.26,80.89 C383.620017,82.4300077 387.539977,83.2 392.02,83.2 C394.446679,83.2 396.523325,83.1533338 398.25,83.06 C399.976675,82.9666662 401.493327,82.7800014 402.8,82.5 L402.8,48.76 L424.64,48.76 L424.64,96.78 C422.026653,97.8066718 417.826695,98.9033275 412.04,100.07 C406.253304,101.236673 399.113376,101.82 390.62,101.82 C383.339963,101.82 376.736696,100.700011 370.81,98.46 C364.883304,96.2199888 359.820021,92.9533548 355.62,88.66 C351.419979,84.3666452 348.176678,79.0933646 345.89,72.84 C343.603322,66.5866354 342.46,59.4467068 342.46,51.42 C342.46,43.2999594 343.719987,36.1133646 346.24,29.86 C348.760012,23.6066354 352.213311,18.3100217 356.6,13.97 C360.986688,9.6299783 366.143304,6.3400112 372.07,4.1 C377.996696,1.8599888 384.319966,0.74 391.04,0.74 C395.613356,0.74 399.743315,1.0433303 403.43,1.65 C407.116685,2.2566697 410.289987,2.9566627 412.95,3.75 C415.610013,4.5433373 417.803325,5.3599958 419.53,6.2 C421.256675,7.0400042 422.493329,7.693331 423.24,8.16 L416.94,25.66 C413.953318,24.0733254 410.523353,22.6966725 406.65,21.53 C402.776647,20.3633275 398.553356,19.78 393.98,19.78 Z M475.16,1.86 C489.720073,1.86 500.873294,4.4499741 508.62,9.63 C516.366705,14.8100259 520.24,22.8599454 520.24,33.78 C520.24,40.5933674 518.676682,46.1233121 515.55,50.37 C512.423317,54.6166879 507.920029,57.9533212 502.04,60.38 C504.00001,62.8066788 506.053322,65.5833177 508.2,68.71 C510.346677,71.8366823 512.469989,75.1033163 514.57,78.51 C516.67001,81.9166837 518.69999,85.4633149 520.66,89.15 C522.62001,92.8366851 524.439991,96.4533156 526.12,100 L501.62,100 C499.846658,96.8266508 498.050009,93.606683 496.23,90.34 C494.409991,87.073317 492.543343,83.9000154 490.63,80.82 C488.716657,77.7399846 486.826676,74.8233471 484.96,72.07 C483.093324,69.3166529 481.226676,66.8200112 479.36,64.58 L468.58,64.58 L468.58,100 L446.74,100 L446.74,4.38 C451.500024,3.446662 456.423308,2.7933352 461.51,2.42 C466.596692,2.0466648 471.146646,1.86 475.16,1.86 Z M476.42,20.48 C474.833325,20.48 473.410006,20.5266662 472.15,20.62 C470.889993,20.7133338 469.700005,20.8066662 468.58,20.9 L468.58,47.22 L474.74,47.22 C482.953374,47.22 488.833315,46.1933436 492.38,44.14 C495.926684,42.0866564 497.7,38.5866914 497.7,33.64 C497.7,28.8799762 495.903351,25.4966767 492.31,23.49 C488.716648,21.4833233 483.420035,20.48 476.42,20.48 Z M611.22,100 C610.193328,96.6399832 609.050006,93.1866844 607.79,89.64 C606.529993,86.0933156 605.293339,82.5466844 604.08,79 L566.28,79 C565.06666,82.5466844 563.830006,86.0933156 562.57,89.64 C561.309993,93.1866844 560.166672,96.6399832 559.14,100 L536.46,100 C540.100018,89.5466144 543.553317,79.886711 546.82,71.02 C550.086683,62.153289 553.283317,53.8000392 556.41,45.96 C559.536682,38.1199608 562.616651,30.6767019 565.65,23.63 C568.683348,16.5832981 571.833317,9.7000336 575.1,2.98 L595.96,2.98 C599.133349,9.7000336 602.259984,16.5832981 605.34,23.63 C608.420015,30.6767019 611.523317,38.1199608 614.65,45.96 C617.776682,53.8000392 620.973317,62.153289 624.24,71.02 C627.506683,79.886711 630.959982,89.5466144 634.6,100 L611.22,100 Z M585.04,24.96 C584.573331,26.360007 583.873338,28.2733212 582.94,30.7 C582.006662,33.1266788 580.933339,35.9266508 579.72,39.1 C578.50666,42.2733492 577.176674,45.7733142 575.73,49.6 C574.283326,53.4266858 572.813341,57.439979 571.32,61.64 L598.9,61.64 C597.406659,57.439979 595.960007,53.4266858 594.56,49.6 C593.159993,45.7733142 591.830006,42.2733492 590.57,39.1 C589.309993,35.9266508 588.213338,33.1266788 587.28,30.7 C586.346662,28.2733212 585.600003,26.360007 585.04,24.96 Z M678.12,83.34 C681.200015,83.34 683.743323,83.0833359 685.75,82.57 C687.756676,82.0566641 689.36666,81.3566711 690.58,80.47 C691.793339,79.5833289 692.633331,78.5333394 693.1,77.32 C693.566669,76.1066606 693.8,74.7533408 693.8,73.26 C693.8,70.0866508 692.306681,67.4500105 689.32,65.35 C686.333318,63.2499895 681.200036,60.9866788 673.92,58.56 C670.74665,57.4399944 667.573349,56.1566739 664.4,54.71 C661.22665,53.2633261 658.380012,51.4433443 655.86,49.25 C653.339987,47.0566557 651.286674,44.3966823 649.7,41.27 C648.113325,38.1433177 647.32,34.3400224 647.32,29.86 C647.32,25.3799776 648.159991,21.3433513 649.84,17.75 C651.520008,14.1566487 653.899984,11.1000126 656.98,8.58 C660.060015,6.0599874 663.793311,4.1233401 668.18,2.77 C672.566688,1.4166599 677.513305,0.74 683.02,0.74 C689.553366,0.74 695.199976,1.439993 699.96,2.84 C704.720023,4.240007 708.639984,5.7799916 711.72,7.46 L705.42,24.68 C702.713319,23.279993 699.70335,22.0433387 696.39,20.97 C693.07665,19.8966613 689.08669,19.36 684.42,19.36 C679.193307,19.36 675.436678,20.0833261 673.15,21.53 C670.863322,22.9766739 669.72,25.1933184 669.72,28.18 C669.72,29.9533422 670.139995,31.4466606 670.98,32.66 C671.820004,33.8733394 673.009992,34.9699951 674.55,35.95 C676.090007,36.9300049 677.863323,37.8166627 679.87,38.61 C681.876676,39.4033373 684.093321,40.2199958 686.52,41.06 C691.560025,42.926676 695.946648,44.7699909 699.68,46.59 C703.413352,48.4100091 706.516654,50.5333212 708.99,52.96 C711.463345,55.3866788 713.30666,58.233317 714.52,61.5 C715.733339,64.766683 716.34,68.73331 716.34,73.4 C716.34,82.4533786 713.166698,89.4766417 706.82,94.47 C700.473301,99.4633583 690.90673,101.96 678.12,101.96 C673.826645,101.96 669.95335,101.703336 666.5,101.19 C663.046649,100.676664 659.990013,100.04667 657.33,99.3 C654.669986,98.5533296 652.383343,97.7600042 650.47,96.92 C648.556657,96.0799958 646.946673,95.2866704 645.64,94.54 L651.8,77.18 C654.693347,78.7666746 658.263312,80.1899937 662.51,81.45 C666.756688,82.7100063 671.959969,83.34 678.12,83.34 Z M761.4,83.34 C764.480015,83.34 767.023323,83.0833359 769.03,82.57 C771.036676,82.0566641 772.64666,81.3566711 773.86,80.47 C775.073339,79.5833289 775.913331,78.5333394 776.38,77.32 C776.846669,76.1066606 777.08,74.7533408 777.08,73.26 C777.08,70.0866508 775.586681,67.4500105 772.6,65.35 C769.613318,63.2499895 764.480036,60.9866788 757.2,58.56 C754.02665,57.4399944 750.853349,56.1566739 747.68,54.71 C744.50665,53.2633261 741.660012,51.4433443 739.14,49.25 C736.619987,47.0566557 734.566674,44.3966823 732.98,41.27 C731.393325,38.1433177 730.6,34.3400224 730.6,29.86 C730.6,25.3799776 731.439991,21.3433513 733.12,17.75 C734.800008,14.1566487 737.179984,11.1000126 740.26,8.58 C743.340015,6.0599874 747.073311,4.1233401 751.46,2.77 C755.846688,1.4166599 760.793305,0.74 766.3,0.74 C772.833366,0.74 778.479976,1.439993 783.24,2.84 C788.000023,4.240007 791.919984,5.7799916 795,7.46 L788.7,24.68 C785.993319,23.279993 782.98335,22.0433387 779.67,20.97 C776.35665,19.8966613 772.36669,19.36 767.7,19.36 C762.473307,19.36 758.716678,20.0833261 756.43,21.53 C754.143322,22.9766739 753,25.1933184 753,28.18 C753,29.9533422 753.419995,31.4466606 754.26,32.66 C755.100004,33.8733394 756.289992,34.9699951 757.83,35.95 C759.370007,36.9300049 761.143323,37.8166627 763.15,38.61 C765.156676,39.4033373 767.373321,40.2199958 769.8,41.06 C774.840025,42.926676 779.226648,44.7699909 782.96,46.59 C786.693352,48.4100091 789.796654,50.5333212 792.27,52.96 C794.743345,55.3866788 796.58666,58.233317 797.8,61.5 C799.013339,64.766683 799.62,68.73331 799.62,73.4 C799.62,82.4533786 796.446698,89.4766417 790.1,94.47 C783.753301,99.4633583 774.18673,101.96 761.4,101.96 C757.106645,101.96 753.23335,101.703336 749.78,101.19 C746.326649,100.676664 743.270013,100.04667 740.61,99.3 C737.949986,98.5533296 735.663343,97.7600042 733.75,96.92 C731.836657,96.0799958 730.226673,95.2866704 728.92,94.54 L735.08,77.18 C737.973347,78.7666746 741.543312,80.1899937 745.79,81.45 C750.036688,82.7100063 755.239969,83.34 761.4,83.34 Z" id="tallgrass"></path>
        </g>
        <g id="icon" transform="translate(221.000000, 0.000000)">
            <g>
                <path d="M189.712859,5.39603257 L349.712859,94.2849215 C356.062162,97.8123124 360,104.504724 360,111.768067 L360,288.231933 C360,295.495276 356.062162,302.187688 349.712859,305.715079 L189.712859,394.603967 C183.672408,397.959773 176.327592,397.959773 170.287141,394.603967 L10.2871414,305.715079 C3.93783767,302.187688 8.52651283e-14,295.495276 8.52651283e-14,288.231933 L0,111.768067 C-1.0658141e-14,104.504724 3.93783767,97.8123124 10.2871414,94.2849215 L170.287141,5.39603257 C176.327592,2.0402266 183.672408,2.0402266 189.712859,5.39603257 Z" id="bg" fill="#F8C76E"></path>
                <path d="M360,148.645299 L360,288.231933 C360,295.495276 356.062162,302.187688 349.712859,305.715079 L189.712859,394.603967 C183.672408,397.959773 176.327592,397.959773 170.287141,394.603967 L10.2871414,305.715079 C8.71515533,304.841753 7.29098694,303.774418 6.03780099,302.552444 L360,148.645299 Z" id="hill-3" fill="#1B778F"></path>
                <path d="M360,265.895969 L360,288.231933 C360,295.495276 356.062162,302.187688 349.712859,305.715079 L189.712859,394.603967 C183.672408,397.959773 176.327592,397.959773 170.287141,394.603967 L10.2871414,305.715079 C3.93783767,302.187688 4.3031719e-14,295.495276 4.3031719e-14,288.231933 L0,199.173913 L360,265.895969 Z" id="hill-2" fill="#31B5B7"></path>
                <path d="M192.366108,270.231394 L207.899798,150.223807 C241.719278,84.4140543 246.673915,69.4701316 242.951497,75.1172716 C239.229078,80.7857296 223.381967,108.088767 223.381967,108.088767 L232.151332,81.1033679 C232.151332,81.1033679 231.282982,83.3033862 220.824146,103.73563 C236.100229,64.9123418 239.321388,41.2823972 239.503859,39.8317068 L209.201786,127.273907 C209.201786,127.273907 212.305948,33.9809798 209.018241,36.770441 C205.729461,39.5588363 204.725868,150.517996 204.725868,150.517996 L188.743512,270.893318 L185.766007,271.435862 L181.935179,170.405564 C181.935179,170.405564 194.242344,26.1114376 190.29452,22.0983229 C186.364943,18.0617583 178.966261,139.655405 178.966261,139.655405 L150.307504,22.2795259 C150.307504,22.2795259 151.198394,53.7097292 166.748185,107.680527 C157.066463,83.3257701 155.19452,78.0197182 154.874658,77.0668033 L162.913064,113.010029 C162.913064,113.010029 145.649115,75.615047 141.515599,67.8147884 C137.382083,60.0134638 141.972851,80.0598515 177.847818,169.611468 L181.396352,272.232089 L156.33443,276.80267 L149.76009,217.777373 C149.76009,217.777373 150.969768,114.371183 147.978309,111.718157 C144.96431,109.064066 146.037671,196.030874 146.037671,196.030874 L119.503098,113.91711 C119.503098,113.91711 121.762524,136.254117 135.668998,173.897454 C127.722901,157.571058 125.987275,153.624029 125.622333,152.785166 L133.204559,177.88925 C133.204559,177.88925 118.95461,152.127505 115.597135,146.799069 C112.240733,141.447184 116.57926,155.484025 146.791171,217.437351 L153.276423,277.360136" id="grass" fill="#305696"></path>
                <path d="M360,235.832183 L360,288.231933 C360,295.495276 356.062162,302.187688 349.712859,305.715079 L189.712859,394.603967 C183.672408,397.959773 176.327592,397.959773 170.287141,394.603967 L10.2871414,305.715079 C8.32070619,304.622615 6.5855777,303.226563 5.12710004,301.603987 L360,235.832183 Z" id="hill-1" fill="#305696"></path>
            </g>
        </g>
    </g>
</svg>