<?xml version="1.0" encoding="UTF-8"?>
<svg width="400px" height="400px" viewBox="0 0 400 400" version="1.1" xmlns="http://www.w3.org/2000/svg" xmlns:xlink="http://www.w3.org/1999/xlink">
    <!-- Generator: Sketch 54.1 (76490) - https://sketchapp.com -->
    <title>tallgrasschurch-logo-slack</title>
    <desc>Created with Sketch.</desc>
    <g id="tallgrasschurch-logo-slack" stroke="none" stroke-width="1" fill="none" fill-rule="evenodd">
        <rect fill="#182B4B" x="0" y="0" width="400" height="400"></rect>
        <path d="M209.047547,17.3620949 L359.209259,100.785268 C365.168148,104.095762 368.863851,110.376662 368.863851,117.193387 L368.863851,282.806613 C368.863851,289.623338 365.168148,295.904238 359.209259,299.214732 L209.047547,382.637905 C203.37852,385.787365 196.485331,385.787365 190.816304,382.637905 L40.6545922,299.214732 C34.6957028,295.904238 31,289.623338 31,282.806613 L31,117.193387 C31,110.376662 34.6957028,104.095762 40.6545922,100.785268 L190.816304,17.3620949 C196.485331,14.212635 203.37852,14.212635 209.047547,17.3620949 Z" id="bg" fill="#FFFFFF"></path>
        <g id="icon" transform="translate(38.000000, 20.000000)">
            <g>
                <path d="M170.741573,4.85642931 L314.741573,84.8564293 C320.455946,88.0310812 324,94.054252 324,100.59126 L324,259.40874 C324,265.945748 320.455946,271.968919 314.741573,275.143571 L170.741573,355.143571 C165.305167,358.163796 158.694833,358.163796 153.258427,355.143571 L9.25842724,275.143571 C3.5440539,271.968919 7.67386155e-14,265.945748 7.67386155e-14,259.40874 L0,100.59126 C-9.59232693e-15,94.054252 3.5440539,88.0310812 9.25842724,84.8564293 L153.258427,4.85642931 C158.694833,1.83620394 165.305167,1.83620394 170.741573,4.85642931 Z" id="bg" fill="#F8C76E"></path>
                <path d="M324,133.780769 L324,259.40874 C324,265.945748 320.455946,271.968919 314.741573,275.143571 L170.741573,355.143571 C165.305167,358.163796 158.694833,358.163796 153.258427,355.143571 L9.25842724,275.143571 C7.8436398,274.357578 6.56188825,273.396977 5.43402089,272.297199 L324,133.780769 Z" id="hill-3" fill="#1B778F"></path>
                <path d="M324,239.306372 L324,259.40874 C324,265.945748 320.455946,271.968919 314.741573,275.143571 L170.741573,355.143571 C165.305167,358.163796 158.694833,358.163796 153.258427,355.143571 L9.25842724,275.143571 C3.5440539,271.968919 3.87285471e-14,265.945748 3.87285471e-14,259.40874 L0,179.256522 L324,239.306372 Z" id="hill-2" fill="#31B5B7"></path>
                <path d="M173.129497,243.208255 L187.109818,135.201426 C217.54735,75.9726489 222.006523,62.5231184 218.656347,67.6055444 C215.306171,72.7071566 201.04377,97.2798901 201.04377,97.2798901 L208.936198,72.9930311 C208.936198,72.9930311 208.154684,74.9730476 198.741731,93.3620668 C212.490206,58.4211076 215.389249,37.1541574 215.553473,35.8485361 L188.281607,114.546516 C188.281607,114.546516 191.075353,30.5828819 188.116417,33.0933969 C185.156515,35.6029527 184.253281,135.466196 184.253281,135.466196 L169.869161,243.803987 L167.189406,244.292276 L163.741661,153.365008 C163.741661,153.365008 174.81811,23.5002939 171.265068,19.8884906 C167.728449,16.2555825 161.069635,125.689865 161.069635,125.689865 L135.276754,20.0515733 C135.276754,20.0515733 136.078555,48.3387563 150.073366,96.9124742 C141.359816,74.9931931 139.675068,70.2177464 139.387192,69.360123 L146.621757,101.709026 C146.621757,101.709026 131.084203,68.0535423 127.364039,61.0333095 C123.643875,54.0121174 127.775566,72.0538663 160.063036,152.650322 L163.256716,245.00888 L140.700987,249.122403 L134.784081,195.999636 C134.784081,195.999636 135.872792,102.934065 133.180478,100.546342 C130.467879,98.157659 131.433904,176.427787 131.433904,176.427787 L107.552788,102.525399 C107.552788,102.525399 109.586272,122.628706 122.102098,156.507708 C114.950611,141.813952 113.388548,138.261626 113.060099,137.506649 L119.884103,160.100325 C119.884103,160.100325 107.059149,136.914755 104.037421,132.119162 C101.016659,127.302465 104.921334,139.935623 132.112054,195.693616 L137.94878,249.624122" id="grass" fill="#305696"></path>
                <path d="M324,212.248965 L324,259.40874 C324,265.945748 320.455946,271.968919 314.741573,275.143571 L170.741573,355.143571 C165.305167,358.163796 158.694833,358.163796 153.258427,355.143571 L9.25842724,275.143571 C7.48863557,274.160353 5.92701993,272.903907 4.61439003,271.443589 L324,212.248965 L324,212.248965 Z" id="hill-1" fill="#305696"></path>
            </g>
        </g>
    </g>
</svg>